<?xml version="1.0" encoding="utf-8"?>
<!-- Generator: Adobe Illustrator 25.2.1, SVG Export Plug-In . SVG Version: 6.00 Build 0)  -->
<svg version="1.1" id="Layer_1" xmlns="http://www.w3.org/2000/svg" xmlns:xlink="http://www.w3.org/1999/xlink" x="0px" y="0px"
	 viewBox="0 0 1510 1510" style="enable-background:new 0 0 1510 1510;" xml:space="preserve">
<style type="text/css">
	.st0{fill:#FF1212;}
	.st1{fill:#FF9515;}
	.st2{fill:#00BDFF;}
	.st3{fill:#FFFFFF;}
	.st4{font-family:'Poppins';}
	.st5{font-size:31.69px;}
</style>
<g id="Layer_2_1_">
	<g id="Layer_1-2">
		<path class="st0" d="M543.7,1101.1l-175.5,302.4c-111.3-66.2-203.5-160-267.8-272.4c-20.4-35.5-37.9-72.6-52.3-110.9l329.1-119
			C409.4,984.3,467.9,1054.4,543.7,1101.1z"/>
		<path class="st1" d="M1328.6,262.7l-266.9,224c-58.9-67.2-138.3-113.1-226-130.6L896.2,13C1067.9,45.1,1219.1,135.5,1328.6,262.7z
			"/>
		<path class="st0" d="M878.5,9.8L818,353.1c-20.4-3.1-41-4.7-61.7-4.6c-68.3-0.1-135.5,17.1-195.3,50L386.7,96.6
			C499.5,33.1,626.8-0.2,756.3,0C797.2,0,838.1,3.3,878.5,9.8z"/>
		<path class="st2" d="M545.4,407.4c-76.3,46.4-135.3,116.7-167.8,199.9L50.1,488.1c60.7-160.2,173.9-295,321.1-382.5L545.4,407.4z"
			/>
		<path class="st2" d="M875.5,1500.4c-169.1,27.2-342.4-3.8-491.6-87.8l175.4-302.4c60.3,33.5,128.1,51,197,50.9
			c19.9,0,39.7-1.4,59.3-4.3L875.5,1500.4z"/>
		<path class="st1" d="M350,754.8c0,44,7.1,87.8,21.1,129.6L42,1003.3C-15.7,838.4-12.7,662.3,43.1,504l328.3,120.2
			C357.2,666.3,350,710.4,350,754.8z"/>
		<path class="st0" d="M1510,767.7c-1.8,129.5-37.1,256.2-102.4,368c-20.6,35.4-44,69.1-70,100.7l-266.3-225
			c56.6-69.3,88.7-155.4,91.2-244.9L1510,767.7z"/>
		<path class="st2" d="M1510,749.7l-347.5-1.1c-1.2-89.7-32.3-176.5-88.2-246.7l266.4-222.1C1448.7,412.8,1508.3,578.4,1510,749.7z"
			/>
		<path class="st1" d="M1326,1250.2c-114.2,132.2-268.3,217.5-433.3,248.2l-59.6-344.5c87.6-16.8,167.2-62.1,226.5-128.7
			L1326,1250.2z"/>
		<g id="college">
			<path class="st3" d="M431.1,328.1c-9.8,3.3-19.1,6.5-28.5,9.6c-29,9.6-58,19.1-87,28.6c-1.5,0.5-3.1,0.6-4.6,0.2
				c-42.8-13.9-85.7-27.9-128.4-41.9c-0.6-0.2-1.1-0.5-1.9-0.8c1.2-0.5,2.1-0.9,3-1.2c41.9-14.1,83.9-28.2,125.8-42.3
				c1.6-0.5,3.3-0.6,4.9-0.1c42.3,14.2,84.6,28.4,126.9,42.7c0.6,0.2,1.3,0.5,2,0.8c-0.1,0.2-0.1,0.5-0.2,0.5
				c-5.4,2.1-5.4,2.1-5.4,7.8c0,21.9,0,43.7,0.1,65.6c0.1,2.1,0.5,4.1,1.4,6c1.8,4,4,7.9,5.9,11.8c0.4,0.8,0.8,2.1,0.4,2.7
				c-3.6,6.5-7.3,12.8-11.2,19.6c-4.2-6.8-8.1-13.1-12-19.5c-0.4-0.6,0-1.9,0.5-2.7c2.5-4.7,5.1-9.3,7.6-14c0.6-1.1,1-2.4,1-3.7
				c0.1-22.6,0.1-45.1,0-67.7C431.3,329.6,431.2,329.1,431.1,328.1z M433.9,406.9c-5.1,9-5,12.5,0.5,17.7c1.2-2.3,2.5-4.6,3.6-6.9
				c0.4-0.8,0.4-1.6,0.2-2.5C436.9,412.5,435.4,409.9,433.9,406.9L433.9,406.9z"/>
			<path class="st3" d="M375.4,356.3c1.3,5.5,2.5,10.5,3.8,15.6c0.8,2.9-0.3,6-2.7,7.8c-4.3,3.9-8.9,7.5-13.7,10.8
				c-14.5,9.3-29.7,17-46.4,21.7c-4.3,1.2-8.8,1.1-13-0.3c-18.7-6.2-36-15.9-51-28.7c-1.2-1.1-2.3-2.3-3.3-3.5
				c-2.3-2.4-2.9-5.8-1.7-8.9c1.5-4.4,2.3-9.1,3.4-14c1.1,0.3,2,0.5,2.9,0.8c18.9,6,37.8,12,56.7,17.8c1.7,0.5,3.5,0.5,5.1,0
				c18.7-6,37.4-12,56-18.1C372.7,357,373.9,356.8,375.4,356.3z"/>
			<text transform="matrix(1 0 0 1 229.59 452.45)" class="st3 st4 st5">AVIATION</text>
			<text transform="matrix(1 0 0 1 238.31 490.48)" class="st3 st4 st5">COLLEGE</text>
		</g>
		<g id="tours">
			<path class="st3" d="M1204.7,439.8c3-4,7.2-6.4,11.6-8.7c-0.3-0.6-0.5-1.1-0.7-1.6c-1.4-2.8-0.4-4.6,2.7-5
				c4.2-0.8,8.5,1.2,10.6,5c0.4,0.6,0.8,1.3,1.1,2c0,0,0.1,0,0.2,0c0.4-1.4,0.9-2.7,1.4-4.1c1-2.4,3.2-4.1,5.8-4.4
				c2.7-0.3,4,1.1,3.7,3.7c-0.2,1-0.5,2-0.7,2.8c2.4,0.9,4.8,1.5,7.1,2.5c1.5,0.7,2.9,1.6,4.2,2.7c2.4,2.1,2.1,3.7-0.9,4.6
				c-2.5,0.6-5,1.1-7.5,1.4c-0.4,0.1-0.7,0.1-1.1,0.1c2.3,1.8,4.5,3.7,6.5,5.7c2.4,2.6,3.8,5.8,4.1,9.3c0.3,2.9-0.5,3.7-3.4,3.8
				c-3.7,0-7.3-0.8-10.5-2.5c-0.5-0.2-0.9-0.5-1.4-0.7c-0.1,0-0.2,0-0.1,0l2,8.4l1.5-0.2l1.5,8.3l1.7-0.1l1.7,9.3l2.3-0.5l1.8,10.1
				l2.3-0.6l2.1,11.5c11-11.5,24.3-17.6,40.1-17s28.6,7.6,38.7,19.9c2.9-1.9,2.6-5.4,4.4-8l1.5,0.3c0.2-0.5,0.4-0.9,0.6-1.4
				c1.7-3.4,3.3-6.9,5-10.3c2.6-0.6,1.8-3.7,3.2-4.8c1.8-1.3,2.3-2.9,3-4.7c0-0.1,0.2-0.3,0.2-0.3c2.7,0.2,1.7-2.3,2.5-3
				c-3.4-1.1-6.7-2-10-3.3c-2.7-1.1-2.8-2.3-0.9-4.5c2.6-3,6.5-4.5,10.5-4.2c-1.2-1.2-2.3-2.5-3.3-3.9c-0.5-0.8-0.7-1.7-0.5-2.6
				c0.2-0.5,1.6-0.8,2.3-0.7c2.7,0.3,5.3,0.8,8.1,1.3c-0.1,0.1,0.1,0,0.2-0.2c1.4-3,2.9-3.2,5.2-0.8c1.7,1.7,2.3,4.1,1.6,6.4
				c-0.2,0.5-0.3,1.1-0.5,1.7c1.2-0.5,2.5-0.9,3.7-1.3c0.8-0.2,1.6-0.2,2.4,0.1c1,0.6,2.3,1.4,2.7,2.4c0.2,0.6-1.2,1.7-2,2.6
				c-0.1,0.1-0.3,0.3-0.5,0.3c0.9,2.6,1.8,5,2.5,7.5c0.2,0.9,0,1.8-0.6,2.5c-0.9,0.2-1.8,0.1-2.6-0.4c-1.6-0.9-3.1-2.1-4.7-3.2
				c1.4,3.9,0.9,8.2-1.5,11.6c-1.7,2.5-2.9,2.7-4.8,0.4c-1.4-2-2.8-4.1-4-6.3c-0.6,0.9-1.4,2-2.1,3.2c-0.3,0.6-1.6,1.1-0.3,2
				c-0.1,0.4-0.2,0.7-0.4,1c-0.7,1-1.5,1.9-2.1,2.9c-0.2,0.4-0.1,0.9-0.2,1.4c0,0.4-0.2,0.9-0.4,1.3c-1,1.4-2,2.7-3.1,4.1l1.2,1.1
				l-4.1,5.5l1.3,1.1l-4.9,6.5l2.2,1.3c-1.2,1.6-2.3,3.2-3.6,4.7c-0.9,0.9-1.1,2.2-0.5,3.3c4.8,12.3,5.2,24.7,0.2,37
				c-7.4,18.5-21.2,29.7-41,32.5c-24.8,3.5-48.4-11.5-55.8-35.4c-3.7-11.3-3.2-23.5,1.5-34.5c0.7-1.4,0.7-3-0.1-4.3
				c-0.8-1.3-1.4-2.6-1.9-4c-0.3-0.9-1.7-1.8-0.4-3c0.1-0.1-0.3-0.9-0.5-1.4l-4.4-9.3l2.2-1c-1.2-2.6-2.4-5.1-3.6-7.6
				c-0.3-0.7-1.3-1.5,0-2.2c0.1-0.1-0.1-0.9-0.3-1.4c-1.1-2.3-2.2-4.6-3.3-7l1.4-1l-3.6-7.5l1.5-1l-3-6.5l1.8-1l-2.6-5.4
				c-3.7,3.6-8.2,6.3-13.2,7.7c-0.5,0.1-1,0.2-1.5,0.3c-2.4,0.3-3.2-0.1-3.6-2.5c-1.1-5.6,0.5-11.3,4.5-15.4c0.3-0.3,0.6-0.6,0.9-1
				c0,0,0-0.1,0-0.2c-3.7-0.3-7.7,0.7-10.8-2.4L1204.7,439.8z M1301.9,547.8v-19.3h-19.4v19.4L1301.9,547.8z M1301.8,524
				c-1-5.5-1.8-10.8-2.8-16.1c-0.1-0.4-1-0.9-1.5-0.9c-3.5-0.1-7,0-10.5,0c-1.2,0-1.7,0.5-1.8,1.6c-0.2,1.7-0.7,3.4-1,5.1
				c-0.5,3.4-0.9,6.9-1.4,10.3L1301.8,524z M1303.4,507c0.8,5.8,1.5,11,2.3,16.1c0.2,0.6,0.7,1.1,1.4,1.3c4.3,0.7,8.7,1.3,13,2
				c0.8,0.1,1.7,0.3,3.2,0.5c-1.1-5.5-2.1-10.6-3.2-15.6c-0.2-0.4-0.5-0.7-0.9-0.8C1314.1,509.4,1308.8,508.3,1303.4,507L1303.4,507
				z M1323.2,531.2l-17-2.7v19.2c5.4-1,10.8-1.9,16-3c0.5-0.2,0.8-0.7,0.9-1.2C1323.2,539.6,1323.2,535.7,1323.2,531.2L1323.2,531.2
				z M1280.8,507.2c-5,1.1-9.8,2.1-14.7,3.3c-0.4,0.1-0.7,0.8-0.8,1.3c-0.8,3.7-1.6,7.3-2.3,11c-0.3,1.4-0.3,2.8-0.4,4.2
				c5-0.8,9.7-1.5,14.5-2.1c0.9,0,1.6-0.7,1.6-1.6c0,0,0,0,0-0.1C1279.3,518.1,1280,513,1280.8,507.2L1280.8,507.2z M1323,549.3
				c-5.8,0.8-11,1.6-16.1,2.4c-0.6,0.2-1.1,0.8-1.3,1.4c-0.8,4.4-1.5,8.9-2.2,13.4c0,0.6,0,1.1,0,1.7c5.1-1,9.9-2,14.8-3.1
				c0.6-0.1,1.1-0.5,1.4-1C1320.7,559.2,1321.8,554.4,1323,549.3L1323,549.3z M1262.1,544.9l16.1,2.6v-18.1
				c-0.2-0.1-0.3-0.2-0.3-0.2c-5,0.8-9.9,1.6-14.9,2.4c-0.3,0.1-0.8,0.8-0.8,1.2C1262.1,536.8,1262.1,540.7,1262.1,544.9
				L1262.1,544.9z M1298.8,568.1l2.8-15.9h-18.7c1,5,1.8,9.9,2.8,14.7c0.2,0.6,0.7,1,1.3,1.2
				C1290.9,568.2,1294.7,568.1,1298.8,568.1L1298.8,568.1z M1281.3,568l-2.7-16.2l-16.1-2.4c1.2,5,2.2,9.7,3.3,14.3
				c0.1,0.5,0.5,0.9,1,1.2C1271.5,565.9,1276.2,566.9,1281.3,568L1281.3,568z M1297.6,490.3c1.4,3.9,2.8,7.5,4,11.2
				c0.2,1,1.1,1.7,2.1,1.7c4.5,0.7,8.9,1.5,13.3,2.3c0.4,0.1,0.7,0.1,1.5,0.1c-1.6-3-3-5.8-4.4-8.5c-1-2.1-3-3.7-5.2-4.3
				C1305.3,491.5,1301.5,490.7,1297.6,490.3L1297.6,490.3z M1245.8,532.9c3.7-1.4,7.2-2.8,10.7-4c1.1-0.3,1.9-1.3,1.9-2.4
				c0.5-3.7,1.1-7.4,1.6-11.2c0.1-0.9,0.3-1.8,0.5-2.6l-0.6-0.4c-3.3,2-6.6,3.9-9.9,5.9c-0.5,0.3-0.9,0.7-1.1,1.3
				C1247.2,523.8,1246.2,528.3,1245.8,532.9L1245.8,532.9z M1339.5,532.9c-0.4-4.7-1.5-9.4-3.3-13.8c-0.1-0.2-0.3-0.4-0.5-0.6
				c-3.4-2-6.8-4.1-10.2-6.1c0.2,4,1,7.4,1.2,10.9s1.1,5.9,5,6.3c1.2,0.3,2.3,0.7,3.4,1.3C1336.5,531.5,1337.8,532.2,1339.5,532.9
				L1339.5,532.9z M1286.5,490.2c-3,0.8-5.8,1.4-8.6,2.2c-1.5,0.4-3.2,0.8-4.2,1.8c-2.8,3.3-4.9,7.1-6.2,11.2
				c4.7-0.7,9.2-1.4,13.6-2.1c0.5-0.1,0.9-0.4,1.1-0.8C1283.6,498.5,1285,494.5,1286.5,490.2L1286.5,490.2z M1297.5,583.8
				c4.8-0.4,9.4-1.6,13.8-3.6c0.2-0.1,0.4-0.3,0.6-0.5c1.9-3.2,3.8-6.3,5.9-9.8c-5.5,0.8-10.4,1.5-15.3,2.2
				c-0.3,0.1-0.6,0.3-0.8,0.7C1300.4,576.4,1299,580,1297.5,583.8L1297.5,583.8z M1339.7,543.2c-4.4,1.7-8.2,3.1-12,4.6
				c-0.4,0.2-0.7,1-0.8,1.5c-0.7,3.5-1.2,6.9-1.8,10.4c-0.2,1-0.5,2-0.8,3.6c3.4-1.9,6.4-3.4,9.2-5.2c1.2-0.8,2.1-1.9,2.7-3.3
				C1337.4,551.2,1338.4,547.4,1339.7,543.2L1339.7,543.2z M1245.9,543.8c0.7,2.6,1.3,5,1.8,7.4c0.7,4.1,3.6,7.5,7.5,9
				c1.9,0.8,3.7,1.7,5.6,2.7c-0.8-4.8-1.6-9.2-2.4-13.5c-0.2-0.6-0.6-1.1-1.1-1.4C1253.7,546.4,1250,545.2,1245.9,543.8
				L1245.9,543.8z M1268,569.8c0.7,1.4,1.3,2.7,1.9,4c2.2,5.4,6.2,8.3,11.9,9c1.8,0.2,3.5,0.6,5.4,0.9c-1.5-3.8-2.8-7.3-4.3-10.8
				c-0.2-0.5-0.7-0.9-1.2-1C1277.3,571.2,1272.8,570.6,1268,569.8z M1292.5,489.9l-0.8,0.1c-2.2,4-3.9,8.3-4.9,12.7h11.1
				C1296,498.2,1294.3,494.1,1292.5,489.9L1292.5,489.9z M1257.9,533c-4.5,1.3-8.8,3.2-12.7,5.6l12.7,5.1V533z M1339.3,538.4
				l-0.1-0.9l-11.7-5v11.1L1339.3,538.4z M1297.5,572.6H1287l5,11h0.7L1297.5,572.6z M1253.7,510.7c2.8-1.1,5.3-2.1,7.7-3.2
				c0.4-0.2,0.8-0.6,1-1c1-2.5,2-5,3.2-7.9C1260.9,501.9,1256.9,506,1253.7,510.7L1253.7,510.7z M1320.1,498.9
				c1.1,2.9,2.1,5.3,3,7.7c0.1,0.4,0.4,0.8,0.8,1c2.4,1,4.9,2,7.7,3.2C1328.5,506.2,1324.6,502.1,1320.1,498.9L1320.1,498.9z
				 M1265.3,575.8l0.5-0.5c-0.9-2.2-1.8-4.3-2.8-6.5c-0.2-0.4-0.5-0.7-0.8-1c-2.3-1-4.7-1.9-7-2.8l-0.4,0.5L1265.3,575.8z
				 M1319.9,575l0.5,0.4l10-9.7l-0.4-0.5c-2.2,0.9-4.3,1.7-6.5,2.6c-0.4,0.2-0.7,0.5-0.9,0.9C1321.6,570.8,1320.7,572.9,1319.9,575
				L1319.9,575z"/>
			<path class="st3" d="M1207.9,574.9c1.6-8.4,14.3-39,17-40.7c2.4,6.9,6.6,12.7,10.7,18.7s8.3,11.6,12.6,17.6l-10.8,1.3
				c2.3,4.2,5.4,7.9,9,11c13.4,11.7,29.2,16.3,46.8,15.2c10.7-0.5,21.2-3.3,30.7-8.1c15.8-8.2,25.5-21.2,28.7-38.8
				c0.2-1.7,0.2-3.3-0.1-5c-0.2-1.7-0.8-3.3-3.1-3.2v-16.1c6.8-0.6,14.1,3.7,17.2,10c3,6.3,3.6,13.5,1.7,20.2
				c-6.3,25.5-21.9,42.8-46.6,51.6c-12,4.4-24.7,6.4-37.4,5.8c-22-1.1-40.7-9.2-55.2-26c-3.4-3.9-5.7-8.7-8.4-13.2
				c-0.4-1-1.5-1.6-2.5-1.3C1214.8,574.2,1211.3,574.5,1207.9,574.9z"/>
			<path class="st3" d="M1305.6,443.5c-2.7,2.4-4.3,2.3-6.7-0.2c-1.1,1.8-3.3,2.5-5.3,1.6v28.2h5.3c4.5,0,9,0.1,13.4,0
				c0.9-0.1,1.8-0.5,2.4-1.1c4-4.4,8-8.9,12.1-13.5l5.3,4.7c-4.2,4.7-8.3,9.4-12.4,14c-1,0.8-1.2,2.3-0.4,3.3c1.4,2.4,2.6,5,4,7.7
				l-6.2,3.2c-1.7-3.2-3.4-6.3-4.9-9.4c-0.4-1.2-1.7-1.9-2.9-1.8c-12,0.1-24,0.1-36,0c-1.1-0.1-2.3,0.4-2.9,1.4
				c-1.6,2.3-3.4,4.4-5.2,6.7l-5.6-4.4c2.7-3.5,5.4-7,8.1-10.3c0.3-0.4,1.3-0.5,1.9-0.5c6.3,0,12.7,0,19,0h2.1V445
				c-2.3,0.6-4.2,0.5-5.5-1.5c-2.8,2.7-4.7,2.7-7-0.1c-2.9,2.3-4.4,2.3-6.8-0.2c-0.4,0.4-0.9,0.8-1.3,1.2c-1.1,0.9-2.8,1-4,0.2
				c-1.4-0.7-2.1-2.1-2-3.7c0.2-3.1,1.5-6,3.6-8.3c6.2-7.1,14.3-10.1,23.5-10.2c8.8-0.2,16.8,2.4,23.3,8.5c2.8,2.6,4.9,5.7,5.2,9.7
				c0.2,2.5-0.6,3.9-2.3,4.6c-2,0.8-3.5,0-4.7-1.5C1309.7,446.3,1308.2,446.3,1305.6,443.5z"/>
			<path class="st3" d="M1394,520.5c-5.5,2.1-11.4,2.6-17.1,1.5c-2.3-0.4-4.6-1.1-6.7-2.1c-6.9-3.7-13.7-2.7-20.4,0.4l-1.8,0.8
				l-2.1-3.5c8.1-4,16-6.2,24.7-2c7,3.4,14.2,3.6,21.8,1.2L1394,520.5z"/>
			<path class="st3" d="M1393.2,523.7c0.8,4,1.2,7.3,2.2,10.5s2.5,6.2,3.8,9.4h-19.7C1383.7,536.8,1387.2,529.7,1393.2,523.7z"/>
			<path class="st3" d="M1364.6,576.8l0.8-3.7c2.5,0.2,4.8,0.5,7.2,0.5c4.5,0,8.9-1.2,12.7-3.5c5.4-3,11.6-1.6,15.7,3.6l-3,2.5
				l-1.1-1c-3.2-2.9-6.4-3.5-10.1-1.3c-6.8,4-14,4.2-21.5,3.2C1365,577,1364.8,576.9,1364.6,576.8z"/>
			<path class="st3" d="M1374.9,559.1c0.4-1.8,0.7-3,0.9-3.8c2-0.5,3.8-0.7,5.3-1.4c4.8-2.5,9.1-1.3,13.6,1.1l-1.7,3.3
				c-0.2,0.1-0.3,0.1-0.4,0.1c-4.1-2.2-8-2-12.1,0.2C1379.1,559.3,1377,558.9,1374.9,559.1z"/>
			<path class="st3" d="M1368.2,595.1l-1.9-3.3c5.2-4.2,14.8-4.7,18.8,0.2c-0.4,0.4-0.9,0.8-1.4,1.2s-1,0.8-1.6,1.2
				C1377.4,591,1372.9,592.7,1368.2,595.1z"/>
			<text transform="matrix(1 0 0 1 1225.47 650.75)" class="st3 st4 st5">TOURS &amp;</text>
			<text transform="matrix(1 0 0 1 1236.1799 688.78)" class="st3 st4 st5">TRAVEL</text>
		</g>
		<g id="tolloCash">
			<path class="st3" d="M1152,158.8c-3.8,3.7-7.6,7.5-11.4,11.3c-19.9,19.9-39.9,39.8-59.8,59.8c-1.3,1.2-2.1,2.9-2,4.7
				c0.1,19.3,0,38.6,0,57.9v3.2H946.6V105.7H1073l0.3,4l4.5-6.1l7.4,9l7-8.2l7.2,8.6l3.7-3.2L1152,158.8z M958.1,117.3v146.8h109
				v-20.6l-13.9,14.3l-4.1-3.7l-7.1,7.8l-7.7-8.6l-6,7.3l-53.6-53.6l89.9-89.9H958.1z M1101.7,183.7c0-13.1-10.6-23.6-23.6-23.6
				c-13.1,0-23.6,10.6-23.7,23.6s10.6,23.6,23.6,23.6C1091.1,207.2,1101.6,196.7,1101.7,183.7z M1092.9,113.8
				c-31.7,31.7-63.3,63.2-94.8,94.7l44.1,44.1l3-2.5l-41.5-41.5c30.8-30.8,61.4-61.4,92.1-92.1L1092.9,113.8z M1078.4,113.2
				l-94.8,94.9l44.5,44.4c0.7-0.7,1.5-1.6,2.7-2.8l-41.6-41.6l92.3-92.2L1078.4,113.2z M1003.9,281.3c0.1,4.1,3.4,7.3,7.5,7.3
				c4.1-0.1,7.3-3.4,7.3-7.5l0,0c-0.1-4.1-3.4-7.3-7.5-7.3C1007.1,273.9,1003.8,277.2,1003.9,281.3z"/>
			<path class="st3" d="M1066,174.2l-2.1-2.4l2.6-2.2l2.3,1.9c4.2-3.8,8.6-7.4,13.8-0.8l-3.9,3.1c-2.2-1.7-4.3-1.3-6.4,1.3l6,5.2
				c2.7-1.4,5-5.5,9.2-4.4c2.2,0.8,4.2,2.2,5.7,4c3.9,4.6,3.7,7-2.3,13.8l2.3,2.5l-2.4,2.5l-2.6-2.2c-7.1,6.6-10.3,6.2-15.1,0.8
				l3.9-3.3c3.9,2.5,4.2,2.5,7.6-1.1l-6.4-5.6c-8.4,5.3-9.9,5.4-14.3,0.7C1060,183.6,1060.2,181.9,1066,174.2z M1087.5,189.9
				c2.9-2.7,3.1-5.1,0.7-7.4c-2.1-1.9-3.9-1.5-6.4,1.8L1087.5,189.9z M1069.5,177.9c-2.8,2.9-3.1,4.7-1.1,6.6s4.1,1.4,6.4-1.4
				C1073.1,181.5,1071.4,179.8,1069.5,177.9L1069.5,177.9z"/>
			<text transform="matrix(1 0 0 1 961.5 340.76)" class="st3 st4 st5">TOLLO</text>
			<text transform="matrix(1 0 0 1 965.54 378.79)" class="st3 st4 st5">CASH</text>
		</g>
		<g id="cargoLogistics">
			<path class="st3" d="M212,617.1c2,0.5,4.1,1.2,6,2.1c7.7,4.1,10.6,13.8,6.4,21.4c-2,3.7-5.4,6.4-9.4,7.6c-1,0.1-1.7,1-1.6,1.9
				c0,0.1,0,0.1,0,0.2c0.1,2.9,0,5.8,0.1,8.7c0.1,0.8,0.4,1.5,0.9,2c3.9,3.2,7.9,6.4,11.9,9.5c0.7,0.5,1.5,0.8,2.3,0.8
				c2.8,0.2,4,1.3,4,4.2c0,6.5,0,13,0,19.5v1.8c0.7,0,1.3,0.1,1.9,0.1h19.2c3.5,0,4.5,1,4.5,4.6v16.6c0,2.8-0.3,3.3-2.9,4.4
				c-0.4,0.2-0.6,0.6-0.7,1c-0.9,7.7-1.9,15.3-2.7,23c-0.4,3.8-0.4,3.8,3.1,5.6c4,2,7.2,4.8,8.8,9.2c1.4,3.6,1.2,7.5-0.5,10.9
				c-2.4,4.5-5.2,8.9-8,13.5l-10.6-5.1c-7.6-3.7-15.2-7.3-22.8-11c-6.2-3.2-13.5-3.1-19.6,0.1c-10.6,5.2-21.1,10.4-31.7,15.6
				l-1.8,0.9l-2.1-3.3c-1.9-3.1-4-6.1-5.7-9.3c-4-7-1.5-16,5.5-20c0,0,0,0,0,0c1.5-0.9,3.1-1.7,4.6-2.6c0.4-0.3,0.7-0.7,0.8-1.2
				c-0.9-9-1.9-18-2.9-27.2c-1,0-1.9,0-2.9,0c-2.6-0.1-3.8-1.3-3.8-3.9c0-5.9,0-11.8,0-17.7c0-2.9,1.2-4.1,4.1-4.1
				c6.5,0,13,0,19.5,0h2v-21.3c0-3.1,1.1-4.2,4.2-4.3c0.7,0,1.4-0.2,1.9-0.7c4.1-3.2,8.2-6.5,12.3-9.8c0.3-0.3,0.8-0.7,0.8-1
				c0.1-2.4,0-4.8,0-7.6c-1.3,1-2.4,1.7-3.4,2.5c-21.9,16.4-43.7,32.8-65.7,49.2c-0.9,0.6-1.4,1.6-1.3,2.7c0,6.8,0,13.6,0,20.4
				c0,0.9,0.2,1.8,0.5,2.7c2.8,7.5,5.6,15,8.4,22.5c0.4,1.1,0.6,2.3,0.6,3.5c0,16.3,0,32.5,0,48.8c0,3.4-1,4.4-4.5,4.4H93.1
				c-3.2,0-4.3-1-4.3-4.2c0-2.8,0-5.6,0-8.5h20.8c0.4,0,0.8,0,1.2,0c2.1-0.1,3.5-1.4,3.5-3.2s-1.5-3.1-3.6-3.1c-6.7,0-13.4,0-20.1,0
				h-1.7v-6.4h1.6c4.5,0,9,0,13.6,0c2.4,0,3.9-1.3,3.8-3.2s-1.5-3.2-3.7-3.2c-4.5,0-9,0-13.6,0h-1.8c0-0.7-0.1-1.3-0.1-1.8
				c0-6.5,0-13,0-19.5c0-1.2,0.2-2.4,0.7-3.5c2.8-7.6,5.7-15.2,8.5-22.8c0.2-0.4,0.3-0.8,0.3-1.2c0-3.9,0-7.8,0-11.9
				c-0.6,0-1.2-0.1-1.7-0.1c-4.4,0-8.8,0-13.3,0c-1.7,0.1-3.4-0.8-4.2-2.3c-1.7-2.7-3.6-5.3-5.2-8c-0.6-1-1-2.2-1-3.4
				c-0.1-5.8,0-11.6,0-17.4c0-3,1.1-4.2,4.1-4.2c11.6,0,23.2,0,34.8,0c1.1,0,2.3-0.3,3.3-0.9c26.2-16.1,52.3-32.3,78.5-48.4
				c0.6-0.4,1-0.9,1.2-1.5c1.7-7.2,6-11.5,13.3-13c0.1-0.1,0.3-0.1,0.4-0.2L212,617.1z M117.6,700.1c0.2,0.1,0.4,0.1,0.7,0.1
				c4.5,0,8.9,0,13.4,0c0.6-0.1,1.2-0.3,1.8-0.7c22.8-17.1,45.7-34.2,68.5-51.3c0.3-0.2,0.6-0.6,1.1-1c-3.6-1.9-6.3-5.1-7.8-8.9
				c-0.4,0.2-0.7,0.3-1,0.5c-25.2,15.5-50.5,31-75.7,46.5c-0.7,0.4-1.2,1.2-1.1,2c0,3.8,0,7.6,0,11.4
				C117.5,699.2,117.6,699.7,117.6,700.1L117.6,700.1z M248.3,722.7h-72.8c0.9,8.2,1.8,16.3,2.7,24.5c0.5-0.2,0.8-0.4,1-0.5
				c7.2-3.9,14.3-7.8,21.6-11.7c6.7-3.8,15-3.9,21.7-0.1c7.3,3.8,14.6,7.7,21.8,11.5c0.3,0.2,0.7,0.3,1.2,0.5
				C246.5,738.8,247.4,730.9,248.3,722.7L248.3,722.7z M111,709.8c0-0.7,0.1-1.1,0.1-1.6c0-6.4,0-12.8,0-19.2c0-1.4-0.4-1.7-1.7-1.7
				c-9.5,0-19.1,0-28.6,0c-0.5,0-1.1,0-1.7,0.1c0.1,2.6,0.1,5.2-0.1,7.8c-0.7,4.9,0.9,9.8,4.2,13.4c0.5,0.7,1.4,1.2,2.2,1.1
				c8,0,15.9,0,23.9,0L111,709.8z M96.6,751.3h41.6c0-0.3-0.1-0.6-0.1-0.8c-2.2-5.8-4.4-11.6-6.5-17.4c-0.3-0.9-0.9-0.9-1.6-0.9
				c-8.3,0-16.7,0-25,0c-0.8-0.1-1.6,0.4-1.8,1.2c-1.9,5.2-3.9,10.4-5.9,15.7C97.2,749.8,96.9,750.5,96.6,751.3L96.6,751.3z
				 M210.3,642.6c5.3,0,9.6-4.3,9.6-9.6c0-5.3-4.3-9.6-9.6-9.6c-5.3,0-9.6,4.2-9.6,9.5C200.7,638.3,205,642.6,210.3,642.6
				C210.3,642.7,210.3,642.7,210.3,642.6L210.3,642.6z M217,671.3c-2.2-1.8-4.2-3.4-6.2-4.9c-0.3-0.2-0.6-0.2-0.9-0.1
				c-2.1,1.6-4.1,3.2-6.3,5L217,671.3z"/>
			<path class="st3" d="M251.9,791.3l-7.1,11.5c-0.9,1.4-1.8,2.8-2.6,4.3c-0.7,1.2-2,2-3.4,1.9c-17.9,0-35.8,0-53.6,0
				c-1.3,0.1-2.5-0.6-3.2-1.7c-3.2-5.1-6.4-10.1-9.6-15.4c0.6-0.3,1.1-0.6,1.6-0.9c10.3-5.1,20.7-10.2,31-15.3
				c4.4-2.4,9.6-2.5,14.1-0.3c10.8,5.1,21.5,10.3,32.2,15.5C251.3,791,251.5,791.1,251.9,791.3z"/>
			<path class="st3" d="M210.4,636.2c-1.8,0-3.2-1.5-3.2-3.2c0,0,0,0,0,0c0-1.7,1.4-3.2,3.2-3.2c1.7,0,3.1,1.4,3.1,3.2
				C213.5,634.8,212.2,636.2,210.4,636.2C210.4,636.2,210.4,636.2,210.4,636.2z"/>
			<text transform="matrix(1 0 0 1 94.31 847.39)" class="st3 st4 st5">CARGO &amp;</text>
			<text transform="matrix(1 0 0 1 84.14 885.42)" class="st3 st4 st5">LOGISTICS</text>
		</g>
		<g id="research">
			<g id="Layer_1-2-2">
				<g id="_Radial_Repeat_">
					<circle class="st3" cx="614.3" cy="207.2" r="19"/>
				</g>
				<g id="_Radial_Repeat_2">
					<circle class="st3" cx="579" cy="120.1" r="19"/>
				</g>
				<g id="_Radial_Repeat_3">
					<circle class="st3" cx="650.9" cy="59.7" r="19"/>
				</g>
				<g id="_Radial_Repeat_4">
					<circle class="st3" cx="730.6" cy="109.4" r="19"/>
				</g>
				<g id="_Radial_Repeat_5">
					<circle class="st3" cx="708" cy="200.6" r="19"/>
				</g>
				<path class="st3" d="M748,158.6c-33.3-11.9-50.6-48.5-38.7-81.8c1-2.7,2.1-5.3,3.4-7.9l-11.1-7.1c-19.7,25-54.9,31.8-82.4,15.8
					c-5.5-3.2-10.4-7.1-14.7-11.8l-4.2-4.5l-4.8,3.9l0,0l-0.4,0.3l-4.5,3.9l3.3,4.9c13.9,20.4,14.8,46.9,2.5,68.2
					c-6.2,10.8-15.5,19.4-26.6,25l4.8,12.3c34-9.5,69.3,10.3,78.8,44.3c0.8,2.8,1.4,5.7,1.8,8.6l13.2-0.7
					c1.3-35.3,31-62.9,66.3-61.6c3.3,0.1,6.6,0.5,9.8,1.1l6.1,1.2l3.2-12.1L748,158.6z M665.5,195.4c-2,3.4-3.7,6.9-5.1,10.5
					c-12.5-24.2-36.9-40.1-64.1-41.7c18.9-19.4,26.3-47.2,19.4-73.4c15.5,8.1,33.3,10.6,50.4,7.2c9.6-1.9,18.7-5.6,26.9-10.8
					c-3.9,26.8,6.5,53.6,27.4,70.8C697.4,161.5,677.2,175.3,665.5,195.4z"/>
			</g>
			<text transform="matrix(1 0 0 1 566.44 273.27)" class="st3 st4 st5">RESEARCH &amp;</text>
			<text transform="matrix(1 0 0 1 544.73 311.3)" class="st3 st4 st5">CONSULTANCY</text>
		</g>
		<g id="airways">
			<text transform="matrix(1 0 0 1 1225.49 1052.74)" class="st3 st4 st5">NATIONAL</text>
			<text transform="matrix(1 0 0 1 1231.5699 1090.77)" class="st3 st4 st5">AIRWAYS</text>
			<path class="st3" d="M1356.4,932.9l8.2-9.9c1.7-2,1.4-5.1-0.6-6.8s-5.1-1.4-6.8,0.6l0,0l-6.3,7.7l-6.2-9.3
				c3.2-3.8,6.3-7.4,9.3-11c35.9-43.3,47.4-69.4,35-79.7s-35.9,6-71.8,49.5c-3,3.7-6,7.4-9,11.2l-10.3-4.3l6.3-7.7
				c1.6-2.1,1.3-5.1-0.8-6.8c-2-1.6-4.9-1.3-6.6,0.6l-8.2,9.9l-44.7-18.8c-11.4-4.9-24.7-1.6-32.6,8c-1.7,2-1.4,5.1,0.6,6.8
				c0.2,0.1,0.3,0.3,0.5,0.4l71.4,44.4c-6.7,9.5-12.9,18.9-18.3,27.6c-2.2,3.5-4.1,6.7-5.8,9.7l-30-8c-2.5-1.1-5.5-0.4-7.2,1.8
				l-1,1.3c-0.5,0.7-0.4,1.7,0.2,2.2c0,0,0,0,0,0c0,0,0.1,0.1,0.1,0.1l29.6,18.4c-7.1,15.3-5.5,20.3-2.2,23c1.3,1.2,3.1,1.8,4.8,1.8
				c3.5,0,8.8-2.1,17.4-8.3l23.6,25.6c0.6,0.6,1.6,0.7,2.2,0.1c0,0,0,0,0,0l0.1-0.1l1.1-1.3c1.8-2.1,1.9-5.2,0.4-7.5l-13.2-28.3
				c2.6-2.2,5.3-4.6,8.1-7.3c7.7-7,15.6-14.9,23.6-23.3l57.1,61.6c1.7,1.9,4.7,2.1,6.6,0.3c0.2-0.2,0.3-0.3,0.5-0.5
				c7.8-9.6,8.5-23.2,1.7-33.5L1356.4,932.9z M1222.9,868.6c5.1-3.3,11.6-3.9,17.2-1.5l61.8,26c-4.3,5.5-8.4,11.2-12.5,16.8
				L1222.9,868.6z M1255.9,985.7c1.9-12.6,32.3-61.6,68.6-105.5s50.7-48.8,55.9-48.8c0.8-0.1,1.7,0.2,2.4,0.6
				c0.5,0.4,10.5,9.8-36.2,66.4C1310.2,942.2,1267.9,981.5,1255.9,985.7L1255.9,985.7z M1377.1,995.8l-53.2-57.6
				c4.8-5.1,9.5-10.2,14.1-15.3l37.3,55.8C1378.7,983.8,1379.4,990.2,1377.1,995.8L1377.1,995.8z"/>
		</g>
		<g id="export">
			<path class="st3" d="M275.3,1056c-0.4-6.2-3.2-11.1-5.9-16s-5.7-9.7-8.7-14.8c2.6,0.1,5.2,0.1,7.9-0.1c4.2-0.5,7,1.1,9.4,4.4
				c3,3.8,6.1,7.5,9.4,11c0.7,0.7,1.6,1.1,2.6,1c11.2-3.2,22.3-6.6,33.8-10.1c-6.3-11.4-12.5-22.7-18.8-34.2
				c5.8-1.6,10.9-1.3,15.5,2.5c9.8,8.1,19.6,16.2,29.4,24.4c1.1,1.1,2.6,1.3,4,0.7c9-3.1,18-6.3,27.1-9.1c6.8-2.1,13.2-1,18.5,4.1
				c6.1,6,4.8,15.2-3.2,18.3c-11.2,4.4-22.6,8.1-34,12.1c-2.2,0.8-4.4,1.5-6.6,2.1c-2.7,0.5-3.4,2.2-3.6,4.6
				c-0.8,6.7-1.9,13.3-2.9,20.5c-0.5-0.5-1-1.1-1.4-1.6c-4.6-7.8-11.1-14.3-18.8-18.9c-0.8-0.6-1.4-1.2-2-2c-3.4-1.1-6.4-2.1-9.3-3
				c-13.2-4.2-27.6-3.2-40,3C276.9,1055.3,276.2,1055.6,275.3,1056z"/>
			<path class="st3" d="M301.3,1153.4c-27.5-0.1-49.8-22.3-50-49.8c-0.2-27.2,22.3-49.8,49.5-50c27.6-0.1,50.2,22.2,50.2,49.7
				C351.2,1130.8,328.9,1153.3,301.3,1153.4C301.3,1153.4,301.3,1153.4,301.3,1153.4z M310.2,1095.2h-18.7v18.8h18.7L310.2,1095.2z
				 M310.1,1090.8c-0.9-5.4-1.8-10.4-2.7-15.4c-0.1-0.4-0.7-1.1-1.1-1.1c-4-0.1-8.1,0-12.3,0c-0.9,5.7-1.7,11.1-2.5,16.6
				L310.1,1090.8z M331,1097.8l-16.5-2.6v18.6c5.2-0.9,10.1-1.8,15.1-2.7c0.7-0.3,1.2-0.9,1.3-1.6C331.1,1105.8,331,1102,331,1097.8
				L331,1097.8z M330.9,1093.5c-0.7-4-1.5-7.9-2-11.8c-0.4-3-1.8-4.4-4.8-4.9c-4.1-0.6-8.2-1.5-12.4-2.3c0.9,5.9,1.7,11.3,2.5,16.5
				L330.9,1093.5z M271.7,1093.7c5.4-0.8,10.1-1.4,14.7-2.2c0.5-0.1,1.1-1.1,1.2-1.7c0.7-4.3,1.3-8.7,2-13c0-0.7,0-1.4,0-2.2
				c-4.5,0.9-8.7,1.8-12.9,2.7c-0.7,0.2-1.7,0.7-1.9,1.3C273.7,1083.5,272.7,1088.4,271.7,1093.7L271.7,1093.7z M311.7,1133.6
				c5.1-1.1,10-2,14.8-3.1c0.5-0.1,0.8-0.5,1-0.9c1.1-4.7,2.1-9.4,3.2-14.2c-5.5,0.8-10.4,1.4-15.3,2.2c-0.7,0.2-1.2,0.8-1.5,1.5
				C313.1,1123.8,312.4,1128.4,311.7,1133.6L311.7,1133.6z M287.1,1113.6v-18.2l-15.3,2.7v13L287.1,1113.6z M294.6,1133.7h12.7
				c0.9-5.2,1.8-10.2,2.6-15.4h-18.1C292.7,1123.5,293.6,1128.5,294.6,1133.7L294.6,1133.7z M272,1115.5c1.1,4.7,2,9,3,13.2
				c0.1,0.7,0.6,1.6,1.1,1.7c4.6,1.1,9.3,2,14.1,3.1c-1-5.7-1.8-10.7-2.6-15.7L272,1115.5z M306.5,1057.5l-0.3,0.9
				c1.3,3.7,2.6,7.3,3.9,11c0.2,0.5,0.7,1.1,1.1,1.2c4.9,0.8,9.8,1.5,15.2,2.3c-1.6-3-2.9-5.8-4.5-8.4c-0.6-1.1-1.5-2.5-2.5-2.9
				C315.2,1060,310.8,1058.8,306.5,1057.5L306.5,1057.5z M255.1,1099.7c4.4-1.6,8-2.9,11.5-4.3c0.5-0.2,0.9-0.6,1.1-1.1
				c0.8-4.8,1.4-9.6,2.2-14.8c-2.2,1.1-4.3,2-6.2,3.2c-1.7,1-4,2-4.7,3.6C257.4,1090.4,256.5,1094.9,255.1,1099.7L255.1,1099.7z
				 M333,1080.1c0.6,4.5,1.2,9,1.9,13.5c0.1,0.6,0.5,1.2,1,1.5c3.5,1.4,7.1,2.7,10.6,4C347,1089.2,342.1,1082.4,333,1080.1z
				 M295.1,1058.4c-9.7,0.2-16.2,5.3-18,14.2c4.3-0.7,8.6-1.3,13-2c0.6-0.2,1-0.7,1.2-1.3C292.6,1065.8,293.8,1062.2,295.1,1058.4
				L295.1,1058.4z M332.5,1128.3c8.9-2.2,14.6-9.9,13.8-18.5c-3.5,1.3-7,2.6-10.4,4c-0.6,0.3-1,0.7-1.2,1.3
				C333.9,1119.5,333.2,1123.9,332.5,1128.3L332.5,1128.3z M306.1,1148.9c11.9-1.1,17.5-5.2,18.9-13.4c-4.5,0.7-9,1.3-13.4,2
				c-0.6,0.1-1.1,0.5-1.4,1C308.7,1141.9,307.4,1145.3,306.1,1148.9L306.1,1148.9z M256.3,1110.2c-0.3,8.7,6.1,16.9,13.8,17.7
				c-0.7-4.2-1.4-8.5-2.1-12.7c-0.2-0.6-0.6-1.1-1.2-1.3C263.4,1112.6,260,1111.5,256.3,1110.2L256.3,1110.2z M277.7,1135.5
				c1.8,8.3,9,13.5,18.1,13.2c-1.3-3.3-2.5-6.6-3.9-9.9c-0.4-0.7-1-1.2-1.8-1.3C286,1136.7,281.9,1136.1,277.7,1135.5L277.7,1135.5z
				 M306.4,1070.1l-5.2-12.5l-1,0.1l-4.9,12.5L306.4,1070.1z M346.5,1104.9l0.1-0.9l-11.3-4.8v10.7L346.5,1104.9z M267.3,1110v-10.7
				l-11.8,5l0.1,0.9L267.3,1110z M300.6,1148.6h0.9l4.5-10.5h-10.1C297.5,1141.8,299.1,1145.2,300.6,1148.6L300.6,1148.6z
				 M263.5,1077c7.6-1.8,10.2-4.5,10.5-10.8C270.5,1069.8,267,1073.4,263.5,1077L263.5,1077z M338.9,1077.5
				c-2.8-4.1-6.3-7.8-10.4-10.7C329.4,1073,332.7,1076.6,338.9,1077.5L338.9,1077.5z M275,1141.5c-0.9-6.6-4.5-9.5-10.4-10.1
				L275,1141.5z M328.6,1140.5l9-8.8C331.5,1132.4,329.4,1134.5,328.6,1140.5L328.6,1140.5z"/>
			<path class="st3" d="M220.7,1143.3c5.3-13.7,9.4-27.2,16.4-40.1c6,13.5,15,24.1,23.1,35.8l-10.3,1.2c2.9,5.3,6.9,9.8,11.8,13.4
				c13.6,10.2,29,13.5,45.7,11.7c10.9-1.2,21.3-3.8,30.6-9.7c13.3-8.3,21.3-20.4,24-36c0.1-1.7,0-3.5-0.3-5.2
				c-0.1-0.6-0.4-1.6-0.9-1.7c-2.7-0.7-2-2.8-2-4.5c0-3.9,0-7.8,0-11.7c6.1-1.1,13.7,3.3,16.8,9.7c3.6,7.5,3.2,15.3,0.9,22.9
				c-6.9,22.3-20.9,38.2-43.1,46.3c-15.7,5.7-31.8,8-48.3,5.1c-21-3.8-38-14-49.3-32.6c-0.1-0.1-0.2-0.3-0.3-0.4
				c-1.2-5.4-5-5.8-9.5-4.7C224.2,1143,222.4,1143.2,220.7,1143.3z"/>
			<path class="st3" d="M231.3,1074.2c-3.1,0.2-6.1,0.1-9.2-0.1c-2.5-0.2-5-0.9-7.2-2.1c-3.8-2.3-3.7-7,0.1-9.4
				c1.8-1.1,4.3-1,5.9-2.2s2.4-3.5,3.9-4.7c4.2-3.3,12.5-2.8,15.2,1.4c1.3,2.2,3.5,3.7,6,4.1c1.3,0.4,2.5,1.1,3.4,2
				c2.9,2.6,2.7,6.7-0.6,8.6c-2.2,1.2-4.7,2-7.2,2.3C238.1,1074.4,234.7,1074.4,231.3,1074.2L231.3,1074.2z"/>
			<path class="st3" d="M377,1072.7c-2.6,0-5.2,0.2-7.7-0.1c-2.1-0.1-4.1-0.6-5.9-1.5c-1.4-1-2.5-2.5-2.9-4.2c-0.5-2,1-3.5,2.8-4.5
				c0.2-0.1,0.4-0.2,0.7-0.3c2.6-0.7,4.9-2.2,6.4-4.4c3.5-4.6,12.3-3,15,2.2c0.3,0.5,0.8,0.9,1.4,1.1c0.6,0.1,1.1,0.2,1.7,0.3
				c3.1,0.7,5.4,3,5.4,5.4s-2,4.6-5.1,5.4c-1.4,0.4-2.7,0.5-4.1,0.6C382.2,1072.8,379.6,1072.7,377,1072.7L377,1072.7z"/>
			<path class="st3" d="M270.3,1006.9c-1.8,0-3.7,0.1-5.5,0c-2.4-0.1-4.4-1.6-4.4-3.3c0-2.2,1.8-3,3.6-3.6c0.6-0.2,1.2-0.6,1.7-1.1
				c1.7-2.7,5.3-3.5,8-1.7c0.7,0.4,1.2,1,1.7,1.6c0.5,0.6,1.2,1,1.9,1.2c1.7,0.6,3.4,1.3,3.4,3.5s-1.8,3-3.5,3.2
				c-2.2,0.2-4.5,0.2-6.7,0.1L270.3,1006.9z"/>
			<path class="st3" d="M353.4,997c-2.1-0.1-3.7,0.1-5.1-0.3c-0.9-0.4-1.7-1.2-2-2.1c-0.1-0.5,1-1.5,1.7-2.1
				c0.6-0.6,1.3-1.1,2.1-1.5c1.1-0.5,2.5-1.4,3.3-1c2.2,0.8,4.2,2,5.9,3.6c1.2,1.2,0.1,2.6-1.4,3C356.5,996.8,354.9,997,353.4,997z"
				/>
			<text transform="matrix(1 0 0 1 194.34 1219.62)" class="st3 st4 st5">NAS IMPORT</text>
			<text transform="matrix(1 0 0 1 232.31 1257.65)" class="st3 st4 st5">EXPORT</text>
		</g>
		<g id="telecom">
			<path class="st3" d="M694.4,1372.3l-17-43.3l0,0l-1-2.6l0,0l-14.6-37.2l-16.3-41.3c7.3-1.7,11.9-9,10.2-16.4
				c-1.7-7.3-9-11.9-16.4-10.2s-11.9,9-10.2,16.4c1.1,4.6,4.4,8.3,8.9,9.8c0,0,0,0.1,0,0.1l-16.5,42l-15.2,38.5l0,0l-0.3,0.7
				l-15.6,39.7c-0.8,2.1,0.2,4.4,2.3,5.2c1.1,0.4,2.3,0.4,3.3-0.2l42.9-23l49.9,26.7c2,1,4.4,0.3,5.4-1.7
				C694.8,1374.7,694.9,1373.5,694.4,1372.3L694.4,1372.3z M664.4,1317.9l-16.8-13.6l8.7-7L664.4,1317.9z M641.7,1260.1l11.6,29.4
				l-0.2,0.2l-11.7,9.5l-11.4-9.2L641.7,1260.1z M626.9,1297.7l2.9,2.3l5.3,4.3l-15.8,12.8L626.9,1297.7z M601.8,1361.4l10-25.4
				l18.7,10L601.8,1361.4z M622.4,1332.7l-5.8-3.1l24.8-20.1l22.9,18.6l-25.3,13.6L622.4,1332.7z M647.4,1346l23.2-12.4l12.4,31.5
				L647.4,1346z"/>
			<path class="st3" d="M663.9,1212.8c-1.3-1.8-3.8-2.2-5.6-1c-1.8,1.3-2.2,3.8-1,5.6c0.1,0.2,0.3,0.4,0.4,0.5
				c7.9,9.4,7.9,23.1,0,32.5c-1.3,1.8-0.8,4.3,1,5.6c1.6,1.1,3.8,0.9,5.1-0.4c5-5.9,7.7-13.3,7.8-21.1
				C671.7,1226.5,669,1218.9,663.9,1212.8z"/>
			<path class="st3" d="M675.1,1200.5c-1.7-1.4-4.2-1.2-5.6,0.5c-1.3,1.5-1.2,3.7,0.1,5.2c15.9,15.5,16.2,40.9,0.7,56.7
				c-0.2,0.2-0.5,0.5-0.7,0.7c-1.5,1.7-1.3,4.2,0.4,5.6c1.5,1.3,3.7,1.3,5.2,0.1c3.4-3.3,14.6-15.7,14.5-34.6
				S678.5,1203.8,675.1,1200.5z"/>
			<path class="st3" d="M688.5,1187c-1.4-1.7-3.9-1.9-5.6-0.5c-1.7,1.4-1.9,3.9-0.5,5.6c0.1,0.2,0.3,0.3,0.5,0.5
				c4.1,4.2,17.5,19.6,17.2,42.6c-0.3,15.4-6.4,30.1-17.2,41.2c-1.7,1.4-1.9,4-0.4,5.6c1.4,1.7,4,1.9,5.6,0.4
				c0.2-0.2,0.3-0.3,0.5-0.5c5.8-5.8,19.2-22.1,19.5-46.7C708.3,1209.1,693.2,1191.7,688.5,1187z"/>
			<path class="st3" d="M624.9,1212.8c-1.7-1.4-4.2-1.2-5.6,0.5c-5.1,6.1-7.8,13.8-7.8,21.7c0.1,7.7,2.8,15.2,7.8,21.1
				c1.3,1.8,3.8,2.2,5.6,1c1.8-1.3,2.2-3.8,1-5.6c-0.1-0.2-0.3-0.4-0.4-0.5c-7.9-9.4-7.9-23.1,0-32.5
				C626.8,1216.7,626.6,1214.2,624.9,1212.8z"/>
			<path class="st3" d="M601.5,1235.3c0.1-10.8,4.5-21.1,12.1-28.7c1.7-1.4,1.9-3.9,0.5-5.6s-3.9-1.9-5.6-0.5
				c-0.2,0.1-0.3,0.3-0.4,0.4c-3.4,3.3-14.5,15.6-14.5,34.3s11.1,31.2,14.5,34.5c1.5,1.7,4,1.8,5.6,0.4c1.7-1.5,1.8-4,0.4-5.6
				c-0.1-0.2-0.3-0.3-0.4-0.4C606,1256.5,601.6,1246.1,601.5,1235.3z"/>
			<path class="st3" d="M583.2,1235.6c-0.3-23,13.1-38.4,17.2-42.6c1.4-1.7,1.2-4.2-0.5-5.6c-1.5-1.2-3.7-1.2-5.1,0
				c-4.6,4.7-19.8,22.2-19.5,48.2c0.3,24.6,13.7,40.8,19.5,46.7c0.7,0.8,1.8,1.2,2.8,1.2c2.2,0,4-1.8,4-4c0-1-0.4-2-1.1-2.7
				C589.6,1265.7,583.5,1251,583.2,1235.6z"/>
			<text transform="matrix(1 0 0 1 565.46 1414.29)" class="st3 st4 st5">TELECOM</text>
			<text transform="matrix(1 0 0 1 548.68 1452.3201)" class="st3 st4 st5">SOLUTIONS</text>
		</g>
		<g>
			<path class="st3" d="M615,788.2h10.8v44.4H615l-18-28v28h-10.8v-44.4H597l18,28V788.2z"/>
			<path class="st3" d="M663.4,832.6l-2.4-7.5h-15.9l-2.5,7.5h-11.5l15.4-44.4h13.1l15.4,44.4H663.4z M647.8,816.9h10.5l-5.2-15.8
				L647.8,816.9z"/>
			<path class="st3" d="M677.2,796.5v-8.2h35v8.2h-12.1v36.1h-10.8v-36.1H677.2z"/>
			<path class="st3" d="M718.6,832.6v-44.3h10.8v44.3H718.6z"/>
			<path class="st3" d="M742.9,826.6c-8.8-9.1-8.8-23.5,0-32.5c9.1-8.5,23.2-8.5,32.2,0c8.7,9.1,8.7,23.4,0,32.5
				C766.1,835.2,752,835.2,742.9,826.6L742.9,826.6z M767.5,819.6c4.3-5.5,4.3-13.1,0-18.6c-4.7-4.6-12.3-4.6-17,0
				c-4.3,5.5-4.3,13.1,0,18.6C755.2,824.2,762.8,824.2,767.5,819.6z"/>
			<path class="st3" d="M817.5,788.2h10.8v44.4h-10.8l-18-28v28h-10.8v-44.4h10.8l18,28L817.5,788.2z"/>
			<path class="st3" d="M865.9,832.6l-2.5-7.5h-15.9l-2.5,7.5h-11.4l15.4-44.4h13.1l15.3,44.4L865.9,832.6z M850.2,816.9h10.5
				l-5.2-15.8L850.2,816.9z"/>
			<path class="st3" d="M882.7,788.3h10.8v36.1H907v8.2h-24.3V788.3z"/>
			<path class="st3" d="M542.7,908.3V864h10.8v44.3L542.7,908.3z"/>
			<path class="st3" d="M591.8,863.9h10.8v44.4h-10.8l-18-28v28H563v-44.4h10.8l18,28L591.8,863.9z"/>
			<path class="st3" d="M623.5,908.3L607.8,864h11.5l11,33.8l11-33.8h11.5L637,908.3H623.5z"/>
			<path class="st3" d="M684.7,863.9v8.2h-16v9.5h14.1v8.2h-14.2v10.3h16v8.2h-26.8v-44.4H684.7z"/>
			<path class="st3" d="M709,871.9c-1.2,0-2.4,0.3-3.3,1.1c-0.9,0.8-1.4,1.9-1.3,3.1c-0.1,1.2,0.4,2.4,1.2,3.2
				c0.9,0.9,1.9,1.5,3.1,1.9c1.3,0.4,2.7,0.9,4.3,1.3c1.6,0.4,3.2,0.9,4.7,1.5c1.5,0.5,2.9,1.2,4.3,2.1c1.3,0.9,2.4,2.1,3.1,3.6
				c0.8,1.7,1.3,3.6,1.2,5.5c0,3.7-1.7,7.3-4.6,9.6c-3.1,2.7-7.1,4-12,4c-5,0-9-1.2-12-3.6c-3.1-2.4-4.7-5.8-4.7-10.2h11.5
				c0.3,3.5,2.1,5.3,5.4,5.3c1.3,0.1,2.6-0.4,3.7-1.2c0.9-0.8,1.4-1.9,1.3-3.1c0-1.2-0.4-2.3-1.2-3.1c-0.9-0.9-2-1.5-3.1-1.9
				c-1.3-0.5-2.7-0.9-4.3-1.3c-1.6-0.4-3.2-0.9-4.7-1.5c-1.5-0.6-2.9-1.3-4.3-2.1c-1.3-0.9-2.4-2.1-3.1-3.5
				c-0.8-1.7-1.3-3.6-1.2-5.5c-0.1-3.8,1.6-7.5,4.6-9.9c3.1-2.5,7-3.7,11.8-3.7c4.8,0,8.6,1.1,11.6,3.3c2.9,2.2,4.5,5.6,4.6,10.3
				h-11.7c-0.1-1.4-0.6-2.7-1.5-3.7C711.4,872.3,710.2,871.9,709,871.9z"/>
			<path class="st3" d="M731.8,872.2V864h35v8.2h-12.1v36.1h-10.8v-36.1L731.8,872.2z"/>
			<path class="st3" d="M823.4,864v44.3h-10.8v-25l-10.3,25h-8l-10.3-25v25h-10.8V864h12.4l12.8,30.5L811,864H823.4z"/>
			<path class="st3" d="M859.7,863.9v8.2h-16v9.5h14.1v8.2h-14.2v10.3h16v8.2h-26.8v-44.4H859.7z"/>
			<path class="st3" d="M897.8,863.9h10.8v44.4h-10.8l-18-28v28h-10.8v-44.4h10.8l18,28L897.8,863.9z"/>
			<path class="st3" d="M915,872.2V864h35v8.2h-12.2v36.1H927v-36.1L915,872.2z"/>
			<path class="st3" d="M640.3,978c-8.8-9.1-8.8-23.4,0-32.5c4.3-4.2,10.1-6.5,16.1-6.4c4.7-0.1,9.3,1.3,13.1,3.9
				c3.8,2.6,6.6,6.4,8,10.9h-12.9c-1.5-3.1-4.6-5-8.1-4.9c-3.3-0.2-6.5,1.1-8.7,3.5c-2.1,2.3-3.2,5.4-3.2,9.3c0,3.9,1.1,7,3.2,9.3
				c2.2,2.4,5.3,3.6,8.5,3.5c2.3,0.1,4.5-0.6,6.3-1.9c1.6-1.3,2.8-3.1,3.2-5.1h-12.5v-8.2h24.1v8.2c-1,4.4-3.3,8.3-6.6,11.3
				c-1.9,1.8-4,3.2-6.4,4.1c-2.6,1.1-5.3,1.6-8.1,1.6C650.4,984.5,644.6,982.2,640.3,978z"/>
			<path class="st3" d="M695.3,966.8v17.2h-10.8v-44.3H702c5.1,0,9.1,1.3,12,4c2.8,2.4,4.3,5.9,4.3,9.6c0,2.7-0.8,5.3-2.3,7.5
				c-1.6,2.4-4.1,4.2-7.6,5.2l10.9,18h-12.6l-10-17.2L695.3,966.8z M695.3,948v10.7h6.7c1.4,0.1,2.8-0.4,3.9-1.5
				c1-1,1.5-2.4,1.4-3.8c0.1-1.4-0.5-2.8-1.5-3.9c-1-1-2.4-1.6-3.8-1.5L695.3,948z"/>
			<path class="st3" d="M730.7,978.1c-8.8-9.1-8.8-23.5,0-32.5c9.1-8.5,23.2-8.5,32.2,0c8.7,9.1,8.7,23.4,0,32.5
				C753.9,986.7,739.8,986.7,730.7,978.1L730.7,978.1z M755.3,971.1c4.3-5.5,4.3-13.1,0-18.6c-4.7-4.6-12.3-4.6-17,0
				c-2.1,2.3-3.2,5.4-3.2,9.3c0,3.9,1.1,7,3.2,9.3C743,975.7,750.6,975.7,755.3,971.1L755.3,971.1z"/>
			<path class="st3" d="M776.2,966.2v-26.5H787v26.5c-0.1,2.2,0.6,4.4,2,6.1c1.5,1.5,3.6,2.3,5.7,2.1c2.2,0.1,4.3-0.6,5.8-2.1
				c1.4-1.7,2.1-3.9,2-6.1v-26.5h10.8v26.5c0.1,3.6-0.9,7.1-2.8,10.1c-1.7,2.7-4.1,4.9-6.9,6.2c-2.9,1.3-6,2-9.1,2
				c-4.8,0.1-9.4-1.6-13-4.8C778,976.5,776.2,972,776.2,966.2z"/>
			<path class="st3" d="M856.3,953.3c-0.1,3.2-1.2,6.2-3.2,8.7c-1.4,1.6-3.1,2.8-5.1,3.5c-2.6,1-5.3,1.4-8,1.4h-6.7v17.2h-10.8
				v-44.3H840c5.1,0,9.1,1.3,12,4C854.8,946.2,856.3,949.7,856.3,953.3z M833.3,958.6h6.7c1.4,0.1,2.9-0.4,3.9-1.5
				c1-1,1.5-2.4,1.4-3.8c0.1-1.4-0.5-2.8-1.5-3.9c-1-1-2.4-1.6-3.8-1.5h-6.7V958.6z"/>
		</g>
		<g>
			<path class="st2" d="M576.5,717.8c9.8-34.8,25.2-55.3,39.1-69c45.2-44.5,122.1-41.4,183-80.5c33.3-21.4,60.1-49.8,73-67.2
				c-7.7,49.8-12.2,103.6-127.1,126.9c-15.6,3.2-75.3,7.5-107.4,28.7C603.5,678.9,586.2,702.5,576.5,717.8z"/>
			<path class="st1" d="M573,745.6c15-32.8,33.3-50.8,49.2-62.2c51.5-37.2,127-22.4,193.1-51.8c36.2-16.1,67-40.1,82.4-55.3
				c-15.2,48-27.8,100.5-144.9,106.1c-15.9,0.8-75.6-4.1-110.5,12.1C605.7,711.3,584.9,732,573,745.6z"/>
			<path class="st0" d="M557.1,783.2c19.1-30.8,39.6-46.3,56.8-55.7c56-30.4,129.2-6.1,198.7-26.9c38.1-11.4,71.8-31.4,89-44.5
				c-21.2,45.9-40.4,96.5-157.7,87.1c-16-1.3-74.7-13.7-111.5-2.1C594,753.3,570.7,771.2,557.1,783.2z"/>
		</g>
	</g>
</g>
<text transform="matrix(1 0 0 1 985.749 1305.038)" class="st3 st4 st5">national</text>
<text transform="matrix(1 0 0 1 916.4832 1343.0677)" class="st3 st4 st5">agro solutions</text>
<g>
	<path class="st3" d="M1061.1,1263.6c-10.1-1.1-20.2-2.1-30.2-3.2c-4.7-0.5-9.4-1.1-14.1-2.1c-21.2-4.5-34.7-17.2-40.2-38.2
		c-0.7-2.5-0.9-5.3-0.9-7.9c-0.1-13.7,0-27.4,0-41c0-1.1,0-2.1,0-3.6c5.6,0.6,11,0.9,16.4,1.7c11.1,1.7,22.3,3.2,33.4,5.5
		c15.3,3.1,35,19.2,35.7,41.1c0.5,15.6,0.2,31.3,0.3,46.9C1061.4,1263,1061.2,1263.2,1061.1,1263.6z"/>
	<path class="st3" d="M1065.6,1232.1c0-2.7-0.1-5,0-7.2c0.9-18.5-6.8-33.2-20.8-44.5c-5.5-4.5-12.3-7.4-18.8-10.7
		c-2.2-1.1-2.9-2.3-2.6-4.6c2-11.7,6.1-22.5,14.6-31.3c7.3-7.5,14.5-15.2,21.7-22.8c1.4-1.5,2.6-3.2,3.7-4.7
		c9.2,10.1,18.4,20.3,27.7,30.3c13.7,14.8,16.7,39.1,6.1,57c-4.3,7.3-10,13.7-15.4,20.3c-4.8,5.8-10,11.3-15,16.9
		C1066.6,1231.3,1066.3,1231.5,1065.6,1232.1z"/>
	<path class="st3" d="M1064.7,1238.4c5.9-6.8,9.6-10.8,12.9-14.4c5-5.4,7.7-8.2,12.2-13.4c5-5.9,7.5-8.8,9.4-11.6
		c3.1-4.7,7.2-13,7.9-26.3c14.4-1.7,28.8-3.5,43.1-5.2c-0.2,17.5-0.4,34.9-0.5,52.4c-1,4.4-4.4,16.7-15.8,27
		c-11.8,10.7-23.8,12.3-29.5,13.1c-14.8,1.6-26,2.9-39.4,3.7C1064.9,1255.4,1064.7,1246.7,1064.7,1238.4z"/>
</g>
</svg>
