<svg xmlns="http://www.w3.org/2000/svg" viewBox="0 0 1510.03 1510"><defs><style>.cls-1{fill:#ff1212;}.cls-2{fill:#ff9515;}.cls-3{fill:#00bdff;}.cls-4,.cls-5{fill:#fff;}.cls-5{isolation:isolate;font-size:31.69px;font-family:Poppins;}</style></defs><g id="Layer_2" data-name="Layer 2"><g id="Layer_1-2" data-name="Layer 1"><g id="Layer_2-2" data-name="Layer 2"><g id="Layer_1-2-2" data-name="Layer 1-2"><path class="cls-1" d="M543.73,1101.1l-175.5,302.4a750.38,750.38,0,0,1-267.8-272.4,758.12,758.12,0,0,1-52.3-110.9l329.1-119A407.87,407.87,0,0,0,543.73,1101.1Z"/><path class="cls-2" d="M1328.63,262.7l-266.9,224a406.14,406.14,0,0,0-226-130.6L896.23,13C1067.93,45.1,1219.13,135.5,1328.63,262.7Z"/><path class="cls-1" d="M878.53,9.8,818,353.1a397.69,397.69,0,0,0-61.7-4.6,403.94,403.94,0,0,0-195.3,50L386.73,96.6A751,751,0,0,1,756.33,0,769.67,769.67,0,0,1,878.53,9.8Z"/><path class="cls-3" d="M545.43,407.4a407.63,407.63,0,0,0-167.8,199.9L50.13,488.1a757,757,0,0,1,321.1-382.5Z"/><path class="cls-3" d="M875.53,1500.4a757,757,0,0,1-491.6-87.8l175.4-302.4a407.63,407.63,0,0,0,256.3,46.6Z"/><path class="cls-2" d="M350,754.8a408.2,408.2,0,0,0,21.1,129.6L42,1003.3c-57.7-164.9-54.7-341,1.1-499.3l328.3,120.2A408.54,408.54,0,0,0,350,754.8Z"/><path class="cls-1" d="M1510,767.7a750.16,750.16,0,0,1-102.4,368,760.52,760.52,0,0,1-70,100.7l-266.3-225a405,405,0,0,0,91.2-244.9Z"/><path class="cls-3" d="M1510,749.7l-347.5-1.1a404.88,404.88,0,0,0-88.2-246.7l266.4-222.1A757.15,757.15,0,0,1,1510,749.7Z"/><path class="cls-2" d="M1326,1250.2c-114.2,132.2-268.3,217.5-433.3,248.2l-59.6-344.5a405.68,405.68,0,0,0,226.5-128.7Z"/><g id="college"><path class="cls-4" d="M431.13,328.1c-9.8,3.3-19.1,6.5-28.5,9.6q-43.5,14.4-87,28.6a8,8,0,0,1-4.6.2c-42.8-13.9-85.7-27.9-128.4-41.9-.6-.2-1.1-.5-1.9-.8,1.2-.5,2.1-.9,3-1.2q62.85-21.15,125.8-42.3a8.2,8.2,0,0,1,4.9-.1q63.45,21.3,126.9,42.7c.6.2,1.3.5,2,.8-.1.2-.1.5-.2.5-5.4,2.1-5.4,2.1-5.4,7.8,0,21.9,0,43.7.1,65.6a15.5,15.5,0,0,0,1.4,6c1.8,4,4,7.9,5.9,11.8.4.8.8,2.1.4,2.7-3.6,6.5-7.3,12.8-11.2,19.6-4.2-6.8-8.1-13.1-12-19.5-.4-.6,0-1.9.5-2.7,2.5-4.7,5.1-9.3,7.6-14a7.87,7.87,0,0,0,1-3.7c.1-22.6.1-45.1,0-67.7A17.78,17.78,0,0,1,431.13,328.1Zm2.8,78.8c-5.1,9-5,12.5.5,17.7,1.2-2.3,2.5-4.6,3.6-6.9a3.57,3.57,0,0,0,.2-2.5c-1.3-2.7-2.8-5.3-4.3-8.3Z"/><path class="cls-4" d="M375.43,356.3c1.3,5.5,2.5,10.5,3.8,15.6a7.35,7.35,0,0,1-2.7,7.8,130.08,130.08,0,0,1-13.7,10.8c-14.5,9.3-29.7,17-46.4,21.7a22.15,22.15,0,0,1-13-.3,152.29,152.29,0,0,1-51-28.7,36.06,36.06,0,0,1-3.3-3.5,8.34,8.34,0,0,1-1.7-8.9c1.5-4.4,2.3-9.1,3.4-14,1.1.3,2,.5,2.9.8,18.9,6,37.8,12,56.7,17.8a8.86,8.86,0,0,0,5.1,0q28.05-9,56-18.1C372.73,357,373.93,356.8,375.43,356.3Z"/><text class="cls-5" transform="translate(229.62 452.45)">AVIATION</text><text class="cls-5" transform="translate(238.34 490.48)">COLLEGE</text></g><g id="tours"><path class="cls-4" d="M1204.73,439.8c3-4,7.2-6.4,11.6-8.7-.3-.6-.5-1.1-.7-1.6-1.4-2.8-.4-4.6,2.7-5a10,10,0,0,1,10.6,5,12.81,12.81,0,0,1,1.1,2h.2c.4-1.4.9-2.7,1.4-4.1a7.19,7.19,0,0,1,5.8-4.4c2.7-.3,4,1.1,3.7,3.7-.2,1-.5,2-.7,2.8,2.4.9,4.8,1.5,7.1,2.5a18.77,18.77,0,0,1,4.2,2.7c2.4,2.1,2.1,3.7-.9,4.6a65.85,65.85,0,0,1-7.5,1.4,4.1,4.1,0,0,1-1.1.1,71.62,71.62,0,0,1,6.5,5.7,15.5,15.5,0,0,1,4.1,9.3c.3,2.9-.5,3.7-3.4,3.8a22.28,22.28,0,0,1-10.5-2.5c-.5-.2-.9-.5-1.4-.7h-.1l2,8.4,1.5-.2,1.5,8.3,1.7-.1,1.7,9.3,2.3-.5,1.8,10.1,2.3-.6,2.1,11.5c11-11.5,24.3-17.6,40.1-17s28.6,7.6,38.7,19.9c2.9-1.9,2.6-5.4,4.4-8l1.5.3c.2-.5.4-.9.6-1.4,1.7-3.4,3.3-6.9,5-10.3,2.6-.6,1.8-3.7,3.2-4.8,1.8-1.3,2.3-2.9,3-4.7,0-.1.2-.3.2-.3,2.7.2,1.7-2.3,2.5-3-3.4-1.1-6.7-2-10-3.3-2.7-1.1-2.8-2.3-.9-4.5a12.57,12.57,0,0,1,10.5-4.2,30.92,30.92,0,0,1-3.3-3.9,3.44,3.44,0,0,1-.5-2.6c.2-.5,1.6-.8,2.3-.7,2.7.3,5.3.8,8.1,1.3-.1.1.1,0,.2-.2,1.4-3,2.9-3.2,5.2-.8a6.33,6.33,0,0,1,1.6,6.4c-.2.5-.3,1.1-.5,1.7,1.2-.5,2.5-.9,3.7-1.3a3.94,3.94,0,0,1,2.4.1c1,.6,2.3,1.4,2.7,2.4.2.6-1.2,1.7-2,2.6a.85.85,0,0,1-.5.3c.9,2.6,1.8,5,2.5,7.5a2.83,2.83,0,0,1-.6,2.5,3.39,3.39,0,0,1-2.6-.4c-1.6-.9-3.1-2.1-4.7-3.2a12.62,12.62,0,0,1-1.5,11.6c-1.7,2.5-2.9,2.7-4.8.4a67.3,67.3,0,0,1-4-6.3c-.6.9-1.4,2-2.1,3.2-.3.6-1.6,1.1-.3,2a3,3,0,0,1-.4,1c-.7,1-1.5,1.9-2.1,2.9a5.9,5.9,0,0,0-.2,1.4,3.26,3.26,0,0,1-.4,1.3c-1,1.4-2,2.7-3.1,4.1l1.2,1.1-4.1,5.5,1.3,1.1-4.9,6.5,2.2,1.3c-1.2,1.6-2.3,3.2-3.6,4.7a2.74,2.74,0,0,0-.5,3.3c4.8,12.3,5.2,24.7.2,37-7.4,18.5-21.2,29.7-41,32.5a50.93,50.93,0,0,1-55.8-35.4,48.87,48.87,0,0,1,1.5-34.5,4.39,4.39,0,0,0-.1-4.3,20.88,20.88,0,0,1-1.9-4c-.3-.9-1.7-1.8-.4-3,.1-.1-.3-.9-.5-1.4l-4.4-9.3,2.2-1c-1.2-2.6-2.4-5.1-3.6-7.6-.3-.7-1.3-1.5,0-2.2a3.12,3.12,0,0,0-.3-1.4c-1.1-2.3-2.2-4.6-3.3-7l1.4-1-3.6-7.5,1.5-1-3-6.5,1.8-1-2.6-5.4a30.94,30.94,0,0,1-13.2,7.7l-1.5.3c-2.4.3-3.2-.1-3.6-2.5a17.14,17.14,0,0,1,4.5-15.4,9,9,0,0,0,.9-1V443c-3.7-.3-7.7.7-10.8-2.4Zm97.2,108V528.5h-19.4v19.4Zm-.1-23.8c-1-5.5-1.8-10.8-2.8-16.1-.1-.4-1-.9-1.5-.9-3.5-.1-7,0-10.5,0-1.2,0-1.7.5-1.8,1.6-.2,1.7-.7,3.4-1,5.1-.5,3.4-.9,6.9-1.4,10.3Zm1.6-17c.8,5.8,1.5,11,2.3,16.1a2,2,0,0,0,1.4,1.3c4.3.7,8.7,1.3,13,2,.8.1,1.7.3,3.2.5-1.1-5.5-2.1-10.6-3.2-15.6a1.42,1.42,0,0,0-.9-.8c-5.1-1.1-10.4-2.2-15.8-3.5Zm19.8,24.2-17-2.7v19.2c5.4-1,10.8-1.9,16-3a1.59,1.59,0,0,0,.9-1.2c.1-3.9.1-7.8.1-12.3Zm-42.4-24c-5,1.1-9.8,2.1-14.7,3.3-.4.1-.7.8-.8,1.3-.8,3.7-1.6,7.3-2.3,11a29.84,29.84,0,0,0-.4,4.2c5-.8,9.7-1.5,14.5-2.1a1.58,1.58,0,0,0,1.6-1.6v-.1c.6-5.1,1.3-10.2,2.1-16Zm42.2,42.1c-5.8.8-11,1.6-16.1,2.4a2.26,2.26,0,0,0-1.3,1.4c-.8,4.4-1.5,8.9-2.2,13.4v1.7c5.1-1,9.9-2,14.8-3.1a2.07,2.07,0,0,0,1.4-1c1.1-4.9,2.2-9.7,3.4-14.8Zm-60.9-4.4,16.1,2.6V529.4a1.24,1.24,0,0,1-.3-.2l-14.9,2.4a1.74,1.74,0,0,0-.8,1.2c-.1,4-.1,7.9-.1,12.1Zm36.7,23.2,2.8-15.9h-18.7c1,5,1.8,9.9,2.8,14.7a2,2,0,0,0,1.3,1.2c3.9.1,7.7,0,11.8,0Zm-17.5-.1-2.7-16.2-16.1-2.4c1.2,5,2.2,9.7,3.3,14.3a2,2,0,0,0,1,1.2l14.5,3.1Zm16.3-77.7c1.4,3.9,2.8,7.5,4,11.2a2.14,2.14,0,0,0,2.1,1.7c4.5.7,8.9,1.5,13.3,2.3a5.76,5.76,0,0,0,1.5.1c-1.6-3-3-5.8-4.4-8.5a8.26,8.26,0,0,0-5.2-4.3,47.49,47.49,0,0,0-11.3-2.5Zm-51.8,42.6c3.7-1.4,7.2-2.8,10.7-4a2.55,2.55,0,0,0,1.9-2.4c.5-3.7,1.1-7.4,1.6-11.2a20,20,0,0,1,.5-2.6l-.6-.4c-3.3,2-6.6,3.9-9.9,5.9a2.37,2.37,0,0,0-1.1,1.3,47.51,47.51,0,0,0-3.1,13.4Zm93.7,0a47.15,47.15,0,0,0-3.3-13.8,2.65,2.65,0,0,0-.5-.6c-3.4-2-6.8-4.1-10.2-6.1.2,4,1,7.4,1.2,10.9s1.1,5.9,5,6.3a14,14,0,0,1,3.4,1.3c1.4.6,2.7,1.3,4.4,2Zm-53-42.7c-3,.8-5.8,1.4-8.6,2.2-1.5.4-3.2.8-4.2,1.8a32.46,32.46,0,0,0-6.2,11.2c4.7-.7,9.2-1.4,13.6-2.1a1.55,1.55,0,0,0,1.1-.8l4.3-12.3Zm11,93.6a41.42,41.42,0,0,0,13.8-3.6,2.65,2.65,0,0,0,.6-.5c1.9-3.2,3.8-6.3,5.9-9.8l-15.3,2.2a1.34,1.34,0,0,0-.8.7c-1.3,3.6-2.7,7.2-4.2,11Zm42.2-40.6c-4.4,1.7-8.2,3.1-12,4.6a2.44,2.44,0,0,0-.8,1.5c-.7,3.5-1.2,6.9-1.8,10.4-.2,1-.5,2-.8,3.6,3.4-1.9,6.4-3.4,9.2-5.2a7.33,7.33,0,0,0,2.7-3.3c1.2-3.6,2.2-7.4,3.5-11.6Zm-93.8.6c.7,2.6,1.3,5,1.8,7.4a11.87,11.87,0,0,0,7.5,9c1.9.8,3.7,1.7,5.6,2.7-.8-4.8-1.6-9.2-2.4-13.5a2.59,2.59,0,0,0-1.1-1.4c-3.6-1.6-7.3-2.8-11.4-4.2Zm22.1,26c.7,1.4,1.3,2.7,1.9,4,2.2,5.4,6.2,8.3,11.9,9,1.8.2,3.5.6,5.4.9-1.5-3.8-2.8-7.3-4.3-10.8a1.72,1.72,0,0,0-1.2-1C1277.33,571.2,1272.83,570.6,1268,569.8Zm24.5-79.9-.8.1a49.12,49.12,0,0,0-4.9,12.7h11.1c-1.9-4.5-3.6-8.6-5.4-12.8Zm-34.6,43.1a51.66,51.66,0,0,0-12.7,5.6l12.7,5.1Zm81.4,5.4-.1-.9-11.7-5v11.1Zm-41.8,34.2H1287l5,11h.7Zm-43.8-61.9c2.8-1.1,5.3-2.1,7.7-3.2a2.41,2.41,0,0,0,1-1c1-2.5,2-5,3.2-7.9a47.19,47.19,0,0,0-11.9,12.1Zm66.4-11.8c1.1,2.9,2.1,5.3,3,7.7a1.59,1.59,0,0,0,.8,1c2.4,1,4.9,2,7.7,3.2a46.48,46.48,0,0,0-11.5-11.9Zm-54.8,76.9.5-.5c-.9-2.2-1.8-4.3-2.8-6.5a3.92,3.92,0,0,0-.8-1c-2.3-1-4.7-1.9-7-2.8l-.4.5Zm54.6-.8.5.4,10-9.7-.4-.5c-2.2.9-4.3,1.7-6.5,2.6a2,2,0,0,0-.9.9q-1.5,3.15-2.7,6.3Z"/><path class="cls-4" d="M1207.93,574.9c1.6-8.4,14.3-39,17-40.7,2.4,6.9,6.6,12.7,10.7,18.7s8.3,11.6,12.6,17.6l-10.8,1.3a39.86,39.86,0,0,0,9,11c13.4,11.7,29.2,16.3,46.8,15.2a76.12,76.12,0,0,0,30.7-8.1c15.8-8.2,25.5-21.2,28.7-38.8a16.77,16.77,0,0,0-.1-5c-.2-1.7-.8-3.3-3.1-3.2V526.8c6.8-.6,14.1,3.7,17.2,10a28.78,28.78,0,0,1,1.7,20.2c-6.3,25.5-21.9,42.8-46.6,51.6a95.53,95.53,0,0,1-37.4,5.8c-22-1.1-40.7-9.2-55.2-26-3.4-3.9-5.7-8.7-8.4-13.2a2.12,2.12,0,0,0-2.5-1.3C1214.83,574.2,1211.33,574.5,1207.93,574.9Z"/><path class="cls-4" d="M1305.63,443.5c-2.7,2.4-4.3,2.3-6.7-.2a4.12,4.12,0,0,1-5.3,1.6v28.2h5.3c4.5,0,9,.1,13.4,0a4.12,4.12,0,0,0,2.4-1.1c4-4.4,8-8.9,12.1-13.5l5.3,4.7c-4.2,4.7-8.3,9.4-12.4,14a2.37,2.37,0,0,0-.4,3.3c1.4,2.4,2.6,5,4,7.7l-6.2,3.2c-1.7-3.2-3.4-6.3-4.9-9.4a2.83,2.83,0,0,0-2.9-1.8q-18,.15-36,0a3.09,3.09,0,0,0-2.9,1.4c-1.6,2.3-3.4,4.4-5.2,6.7l-5.6-4.4c2.7-3.5,5.4-7,8.1-10.3.3-.4,1.3-.5,1.9-.5h21.1V445c-2.3.6-4.2.5-5.5-1.5-2.8,2.7-4.7,2.7-7-.1-2.9,2.3-4.4,2.3-6.8-.2-.4.4-.9.8-1.3,1.2a3.46,3.46,0,0,1-4,.2,3.7,3.7,0,0,1-2-3.7,13.62,13.62,0,0,1,3.6-8.3c6.2-7.1,14.3-10.1,23.5-10.2,8.8-.2,16.8,2.4,23.3,8.5,2.8,2.6,4.9,5.7,5.2,9.7.2,2.5-.6,3.9-2.3,4.6-2,.8-3.5,0-4.7-1.5C1309.73,446.3,1308.23,446.3,1305.63,443.5Z"/><path class="cls-4" d="M1394,520.5a31.24,31.24,0,0,1-17.1,1.5,26.11,26.11,0,0,1-6.7-2.1c-6.9-3.7-13.7-2.7-20.4.4l-1.8.8-2.1-3.5c8.1-4,16-6.2,24.7-2,7,3.4,14.2,3.6,21.8,1.2Z"/><path class="cls-4" d="M1393.23,523.7a106.4,106.4,0,0,0,2.2,10.5c1,3.2,2.5,6.2,3.8,9.4h-19.7C1383.73,536.8,1387.23,529.7,1393.23,523.7Z"/><path class="cls-4" d="M1364.63,576.8l.8-3.7c2.5.2,4.8.5,7.2.5a24.52,24.52,0,0,0,12.7-3.5c5.4-3,11.6-1.6,15.7,3.6l-3,2.5-1.1-1c-3.2-2.9-6.4-3.5-10.1-1.3-6.8,4-14,4.2-21.5,3.2A4.88,4.88,0,0,1,1364.63,576.8Z"/><path class="cls-4" d="M1374.93,559.1c.4-1.8.7-3,.9-3.8a31.15,31.15,0,0,0,5.3-1.4c4.8-2.5,9.1-1.3,13.6,1.1l-1.7,3.3a.76.76,0,0,1-.4.1c-4.1-2.2-8-2-12.1.2C1379.13,559.3,1377,558.9,1374.93,559.1Z"/><path class="cls-4" d="M1368.23,595.1l-1.9-3.3c5.2-4.2,14.8-4.7,18.8.2a17.41,17.41,0,0,1-1.4,1.2c-.5.4-1,.8-1.6,1.2C1377.43,591,1372.93,592.7,1368.23,595.1Z"/><text class="cls-5" transform="translate(1225.5 650.75)">TOURS &amp;</text><text class="cls-5" transform="translate(1236.21 688.78)">TRAVEL</text></g><g id="tolloCash"><path class="cls-4" d="M1152,158.8c-3.8,3.7-7.6,7.5-11.4,11.3-19.9,19.9-39.9,39.8-59.8,59.8a6,6,0,0,0-2,4.7c.1,19.3,0,38.6,0,57.9v3.2H946.63v-190H1073l.3,4,4.5-6.1,7.4,9,7-8.2,7.2,8.6,3.7-3.2Zm-193.9-41.5V264.1h109V243.5l-13.9,14.3-4.1-3.7-7.1,7.8-7.7-8.6-6,7.3L974.73,207l89.9-89.9H958.13Zm143.6,66.4a23.65,23.65,0,1,0-23.7,23.6A23.58,23.58,0,0,0,1101.73,183.7Zm-8.8-69.9q-47.55,47.55-94.8,94.7l44.1,44.1,3-2.5-41.5-41.5,92.1-92.1Zm-14.5-.6-94.8,94.9,44.5,44.4c.7-.7,1.5-1.6,2.7-2.8l-41.6-41.6,92.3-92.2Zm-74.5,168.1a7.4,7.4,0,0,0,14.8-.2h0a7.4,7.4,0,1,0-14.8.2Z"/><path class="cls-4" d="M1066,174.2l-2.1-2.4,2.6-2.2,2.3,1.9c4.2-3.8,8.6-7.4,13.8-.8l-3.9,3.1c-2.2-1.7-4.3-1.3-6.4,1.3l6,5.2c2.7-1.4,5-5.5,9.2-4.4a13.47,13.47,0,0,1,5.7,4c3.9,4.6,3.7,7-2.3,13.8l2.3,2.5-2.4,2.5-2.6-2.2c-7.1,6.6-10.3,6.2-15.1.8l3.9-3.3c3.9,2.5,4.2,2.5,7.6-1.1l-6.4-5.6c-8.4,5.3-9.9,5.4-14.3.7C1060,183.6,1060.23,181.9,1066,174.2Zm21.5,15.7c2.9-2.7,3.1-5.1.7-7.4-2.1-1.9-3.9-1.5-6.4,1.8Zm-18-12c-2.8,2.9-3.1,4.7-1.1,6.6s4.1,1.4,6.4-1.4c-1.7-1.6-3.4-3.3-5.3-5.2Z"/><text class="cls-5" transform="translate(961.53 340.76)">TOLLO</text><text class="cls-5" transform="translate(965.57 378.79)">CASH</text></g><g id="cargoLogistics"><path class="cls-4" d="M212,617.1a32.88,32.88,0,0,1,6,2.1,15.76,15.76,0,0,1-3,29,1.77,1.77,0,0,0-1.6,1.9v.2c.1,2.9,0,5.8.1,8.7a3.37,3.37,0,0,0,.9,2c3.9,3.2,7.9,6.4,11.9,9.5a4,4,0,0,0,2.3.8c2.8.2,4,1.3,4,4.2v21.3c.7,0,1.3.1,1.9.1h19.2c3.5,0,4.5,1,4.5,4.6v16.6c0,2.8-.3,3.3-2.9,4.4a1.45,1.45,0,0,0-.7,1c-.9,7.7-1.9,15.3-2.7,23-.4,3.8-.4,3.8,3.1,5.6,4,2,7.2,4.8,8.8,9.2a13.36,13.36,0,0,1-.5,10.9c-2.4,4.5-5.2,8.9-8,13.5l-10.6-5.1c-7.6-3.7-15.2-7.3-22.8-11a21.21,21.21,0,0,0-19.6.1c-10.6,5.2-21.1,10.4-31.7,15.6l-1.8.9-2.1-3.3c-1.9-3.1-4-6.1-5.7-9.3a14.72,14.72,0,0,1,5.5-20h0c1.5-.9,3.1-1.7,4.6-2.6a2,2,0,0,0,.8-1.2c-.9-9-1.9-18-2.9-27.2h-2.9c-2.6-.1-3.8-1.3-3.8-3.9V701c0-2.9,1.2-4.1,4.1-4.1h21.5V675.6c0-3.1,1.1-4.2,4.2-4.3a2.64,2.64,0,0,0,1.9-.7c4.1-3.2,8.2-6.5,12.3-9.8.3-.3.8-.7.8-1,.1-2.4,0-4.8,0-7.6-1.3,1-2.4,1.7-3.4,2.5-21.9,16.4-43.7,32.8-65.7,49.2a2.89,2.89,0,0,0-1.3,2.7V727a8.57,8.57,0,0,0,.5,2.7l8.4,22.5a10.3,10.3,0,0,1,.6,3.5v48.8c0,3.4-1,4.4-4.5,4.4H93.13c-3.2,0-4.3-1-4.3-4.2v-8.5h22c2.1-.1,3.5-1.4,3.5-3.2s-1.5-3.1-3.6-3.1H88.93v-6.4h15.2c2.4,0,3.9-1.3,3.8-3.2a3.36,3.36,0,0,0-3.7-3.2H88.83c0-.7-.1-1.3-.1-1.8V755.8a8.42,8.42,0,0,1,.7-3.5c2.8-7.6,5.7-15.2,8.5-22.8a2.66,2.66,0,0,0,.3-1.2V716.4c-.6,0-1.2-.1-1.7-.1H83.23A4.51,4.51,0,0,1,79,714c-1.7-2.7-3.6-5.3-5.2-8a6.74,6.74,0,0,1-1-3.4c-.1-5.8,0-11.6,0-17.4,0-3,1.1-4.2,4.1-4.2h34.8a6.56,6.56,0,0,0,3.3-.9q39.3-24.15,78.5-48.4a2.89,2.89,0,0,0,1.2-1.5c1.7-7.2,6-11.5,13.3-13,.1-.1.3-.1.4-.2Zm-94.4,83a1.48,1.48,0,0,0,.7.1h13.4a4.49,4.49,0,0,0,1.8-.7c22.8-17.1,45.7-34.2,68.5-51.3.3-.2.6-.6,1.1-1a17,17,0,0,1-7.8-8.9,9.29,9.29,0,0,0-1,.5q-37.8,23.25-75.7,46.5a2.11,2.11,0,0,0-1.1,2v11.4c0,.5.1,1,.1,1.4Zm130.7,22.6h-72.8c.9,8.2,1.8,16.3,2.7,24.5a8.92,8.92,0,0,0,1-.5c7.2-3.9,14.3-7.8,21.6-11.7a22.08,22.08,0,0,1,21.7-.1c7.3,3.8,14.6,7.7,21.8,11.5a7.26,7.26,0,0,0,1.2.5c1-8.1,1.9-16,2.8-24.2ZM111,709.8c0-.7.1-1.1.1-1.6V689c0-1.4-.4-1.7-1.7-1.7H80.83a10.28,10.28,0,0,0-1.7.1,67.67,67.67,0,0,1-.1,7.8,16.42,16.42,0,0,0,4.2,13.4,2.53,2.53,0,0,0,2.2,1.1h23.9Zm-14.4,41.5h41.6c0-.3-.1-.6-.1-.8-2.2-5.8-4.4-11.6-6.5-17.4-.3-.9-.9-.9-1.6-.9H105a1.65,1.65,0,0,0-1.8,1.2c-1.9,5.2-3.9,10.4-5.9,15.7a11.09,11.09,0,0,1-.7,2.2Zm113.7-108.7a9.6,9.6,0,1,0-9.6-9.7,9.6,9.6,0,0,0,9.6,9.7Zm6.7,28.7c-2.2-1.8-4.2-3.4-6.2-4.9a1,1,0,0,0-.9-.1c-2.1,1.6-4.1,3.2-6.3,5Z"/><path class="cls-4" d="M251.93,791.3l-7.1,11.5c-.9,1.4-1.8,2.8-2.6,4.3a3.7,3.7,0,0,1-3.4,1.9h-53.6a3.51,3.51,0,0,1-3.2-1.7c-3.2-5.1-6.4-10.1-9.6-15.4.6-.3,1.1-.6,1.6-.9,10.3-5.1,20.7-10.2,31-15.3a15.27,15.27,0,0,1,14.1-.3c10.8,5.1,21.5,10.3,32.2,15.5C251.33,791,251.53,791.1,251.93,791.3Z"/><path class="cls-4" d="M210.43,636.2a3.22,3.22,0,0,1-3.2-3.2h0a3.22,3.22,0,0,1,3.2-3.2,3.14,3.14,0,0,1,3.1,3.2,3.08,3.08,0,0,1-3.1,3.2Z"/><text class="cls-5" transform="translate(94.34 847.39)">CARGO &amp;</text><text class="cls-5" transform="translate(84.17 885.42)">LOGISTICS</text></g><g id="research"><g id="Layer_1-2-2-2" data-name="Layer 1-2-2"><g id="_Radial_Repeat_" data-name=" Radial Repeat "><circle class="cls-4" cx="614.33" cy="207.2" r="19"/></g><g id="_Radial_Repeat_2" data-name=" Radial Repeat 2"><circle class="cls-4" cx="579.03" cy="120.1" r="19"/></g><g id="_Radial_Repeat_3" data-name=" Radial Repeat 3"><circle class="cls-4" cx="650.93" cy="59.7" r="19"/></g><g id="_Radial_Repeat_4" data-name=" Radial Repeat 4"><circle class="cls-4" cx="730.63" cy="109.4" r="19"/></g><g id="_Radial_Repeat_5" data-name=" Radial Repeat 5"><circle class="cls-4" cx="708.03" cy="200.6" r="19"/></g><path class="cls-4" d="M748,158.6a64,64,0,0,1-38.7-81.8,78.31,78.31,0,0,1,3.4-7.9l-11.1-7.1a64,64,0,0,1-82.4,15.8,62,62,0,0,1-14.7-11.8l-4.2-4.5-4.8,3.9h0l-.4.3-4.5,3.9,3.3,4.9a63.9,63.9,0,0,1-24.1,93.2l4.8,12.3a63.92,63.92,0,0,1,78.8,44.3,62.54,62.54,0,0,1,1.8,8.6l13.2-.7a64.12,64.12,0,0,1,76.1-60.5l6.1,1.2,3.2-12.1Zm-82.5,36.8a72.55,72.55,0,0,0-5.1,10.5,77.36,77.36,0,0,0-64.1-41.7,77,77,0,0,0,19.4-73.4,76.59,76.59,0,0,0,50.4,7.2A78.82,78.82,0,0,0,693,87.2a77.23,77.23,0,0,0,27.4,70.8A77,77,0,0,0,665.53,195.4Z"/></g><text class="cls-5" transform="translate(566.47 273.27)">RESEARCH &amp;</text><text class="cls-5" transform="translate(544.76 311.3)">CONSULTANCY</text></g><g id="airways"><text class="cls-5" transform="translate(1225.52 1052.74)">NATIONAL</text><text class="cls-5" transform="translate(1231.6 1090.77)">AIRWAYS</text><path class="cls-4" d="M1356.43,932.9l8.2-9.9a4.83,4.83,0,0,0-7.4-6.2h0l-6.3,7.7-6.2-9.3c3.2-3.8,6.3-7.4,9.3-11,35.9-43.3,47.4-69.4,35-79.7s-35.9,6-71.8,49.5c-3,3.7-6,7.4-9,11.2l-10.3-4.3,6.3-7.7a4.9,4.9,0,0,0-.8-6.8,4.83,4.83,0,0,0-6.6.6l-8.2,9.9-44.7-18.8a28,28,0,0,0-32.6,8,4.88,4.88,0,0,0,.6,6.8c.2.1.3.3.5.4l71.4,44.4c-6.7,9.5-12.9,18.9-18.3,27.6-2.2,3.5-4.1,6.7-5.8,9.7l-30-8a6,6,0,0,0-7.2,1.8l-1,1.3a1.67,1.67,0,0,0,.2,2.2h0l.1.1,29.6,18.4c-7.1,15.3-5.5,20.3-2.2,23a7.17,7.17,0,0,0,4.8,1.8c3.5,0,8.8-2.1,17.4-8.3l23.6,25.6a1.57,1.57,0,0,0,2.2.1h0l.1-.1,1.1-1.3a6.31,6.31,0,0,0,.4-7.5l-13.2-28.3c2.6-2.2,5.3-4.6,8.1-7.3,7.7-7,15.6-14.9,23.6-23.3l57.1,61.6a4.62,4.62,0,0,0,6.6.3l.5-.5a28.4,28.4,0,0,0,1.7-33.5Zm-133.5-64.3a18.44,18.44,0,0,1,17.2-1.5l61.8,26c-4.3,5.5-8.4,11.2-12.5,16.8Zm33,117.1c1.9-12.6,32.3-61.6,68.6-105.5s50.7-48.8,55.9-48.8a4.1,4.1,0,0,1,2.4.6c.5.4,10.5,9.8-36.2,66.4-36.4,43.8-78.7,83.1-90.7,87.3Zm121.2,10.1-53.2-57.6q7.2-7.65,14.1-15.3l37.3,55.8a18.3,18.3,0,0,1,1.8,17.1Z"/></g><g id="export"><path class="cls-4" d="M275.33,1056c-.4-6.2-3.2-11.1-5.9-16s-5.7-9.7-8.7-14.8a69.7,69.7,0,0,0,7.9-.1c4.2-.5,7,1.1,9.4,4.4,3,3.8,6.1,7.5,9.4,11a3.19,3.19,0,0,0,2.6,1c11.2-3.2,22.3-6.6,33.8-10.1-6.3-11.4-12.5-22.7-18.8-34.2,5.8-1.6,10.9-1.3,15.5,2.5,9.8,8.1,19.6,16.2,29.4,24.4a3.51,3.51,0,0,0,4,.7c9-3.1,18-6.3,27.1-9.1,6.8-2.1,13.2-1,18.5,4.1,6.1,6,4.8,15.2-3.2,18.3-11.2,4.4-22.6,8.1-34,12.1q-3.3,1.2-6.6,2.1c-2.7.5-3.4,2.2-3.6,4.6-.8,6.7-1.9,13.3-2.9,20.5a20,20,0,0,1-1.4-1.6,54,54,0,0,0-18.8-18.9,9.48,9.48,0,0,1-2-2c-3.4-1.1-6.4-2.1-9.3-3a53.37,53.37,0,0,0-40,3C276.93,1055.3,276.23,1055.6,275.33,1056Z"/><path class="cls-4" d="M301.33,1153.4a50.17,50.17,0,0,1-50-49.8c-.2-27.2,22.3-49.8,49.5-50a49.9,49.9,0,1,1,.5,99.8Zm8.9-58.2h-18.7V1114h18.7Zm-.1-4.4c-.9-5.4-1.8-10.4-2.7-15.4-.1-.4-.7-1.1-1.1-1.1-4-.1-8.1,0-12.3,0-.9,5.7-1.7,11.1-2.5,16.6Zm20.9,7-16.5-2.6v18.6c5.2-.9,10.1-1.8,15.1-2.7a2.11,2.11,0,0,0,1.3-1.6c.2-3.7.1-7.5.1-11.7Zm-.1-4.3c-.7-4-1.5-7.9-2-11.8-.4-3-1.8-4.4-4.8-4.9-4.1-.6-8.2-1.5-12.4-2.3.9,5.9,1.7,11.3,2.5,16.5Zm-59.2.2c5.4-.8,10.1-1.4,14.7-2.2.5-.1,1.1-1.1,1.2-1.7.7-4.3,1.3-8.7,2-13v-2.2c-4.5.9-8.7,1.8-12.9,2.7-.7.2-1.7.7-1.9,1.3-1.1,4.9-2.1,9.8-3.1,15.1Zm40,39.9c5.1-1.1,10-2,14.8-3.1a1.5,1.5,0,0,0,1-.9c1.1-4.7,2.1-9.4,3.2-14.2-5.5.8-10.4,1.4-15.3,2.2a2.48,2.48,0,0,0-1.5,1.5c-.8,4.7-1.5,9.3-2.2,14.5Zm-24.6-20v-18.2l-15.3,2.7v13Zm7.5,20.1h12.7c.9-5.2,1.8-10.2,2.6-15.4h-18.1c.9,5.2,1.8,10.2,2.8,15.4ZM272,1115.5c1.1,4.7,2,9,3,13.2.1.7.6,1.6,1.1,1.7,4.6,1.1,9.3,2,14.1,3.1-1-5.7-1.8-10.7-2.6-15.7Zm34.5-58-.3.9c1.3,3.7,2.6,7.3,3.9,11a2.18,2.18,0,0,0,1.1,1.2c4.9.8,9.8,1.5,15.2,2.3-1.6-3-2.9-5.8-4.5-8.4-.6-1.1-1.5-2.5-2.5-2.9-4.2-1.6-8.6-2.8-12.9-4.1Zm-51.4,42.2c4.4-1.6,8-2.9,11.5-4.3a2,2,0,0,0,1.1-1.1c.8-4.8,1.4-9.6,2.2-14.8-2.2,1.1-4.3,2-6.2,3.2-1.7,1-4,2-4.7,3.6-1.6,4.1-2.5,8.6-3.9,13.4Zm77.9-19.6c.6,4.5,1.2,9,1.9,13.5a2.26,2.26,0,0,0,1,1.5c3.5,1.4,7.1,2.7,10.6,4C347,1089.2,342.13,1082.4,333,1080.1Zm-37.9-21.7c-9.7.2-16.2,5.3-18,14.2,4.3-.7,8.6-1.3,13-2a2,2,0,0,0,1.2-1.3c1.3-3.5,2.5-7.1,3.8-10.9Zm37.4,69.9c8.9-2.2,14.6-9.9,13.8-18.5-3.5,1.3-7,2.6-10.4,4a2.19,2.19,0,0,0-1.2,1.3c-.8,4.4-1.5,8.8-2.2,13.2Zm-26.4,20.6c11.9-1.1,17.5-5.2,18.9-13.4-4.5.7-9,1.3-13.4,2a2.07,2.07,0,0,0-1.4,1c-1.5,3.4-2.8,6.8-4.1,10.4Zm-49.8-38.7c-.3,8.7,6.1,16.9,13.8,17.7-.7-4.2-1.4-8.5-2.1-12.7a2,2,0,0,0-1.2-1.3c-3.4-1.3-6.8-2.4-10.5-3.7Zm21.4,25.3c1.8,8.3,9,13.5,18.1,13.2-1.3-3.3-2.5-6.6-3.9-9.9a2.42,2.42,0,0,0-1.8-1.3c-4.1-.8-8.2-1.4-12.4-2Zm28.7-65.4-5.2-12.5-1,.1-4.9,12.5Zm40.1,34.8.1-.9-11.3-4.8v10.7Zm-79.2,5.1v-10.7l-11.8,5,.1.9Zm33.3,38.6h.9l4.5-10.5h-10.1c1.6,3.7,3.2,7.1,4.7,10.5Zm-37.1-71.6c7.6-1.8,10.2-4.5,10.5-10.8l-10.5,10.8Zm75.4.5a42.3,42.3,0,0,0-10.4-10.7c.9,6.2,4.2,9.8,10.4,10.7Zm-63.9,64c-.9-6.6-4.5-9.5-10.4-10.1Zm53.6-1,9-8.8c-6.1.7-8.2,2.8-9,8.8Z"/><path class="cls-4" d="M220.73,1143.3c5.3-13.7,9.4-27.2,16.4-40.1,6,13.5,15,24.1,23.1,35.8l-10.3,1.2a41,41,0,0,0,11.8,13.4c13.6,10.2,29,13.5,45.7,11.7,10.9-1.2,21.3-3.8,30.6-9.7,13.3-8.3,21.3-20.4,24-36a22.72,22.72,0,0,0-.3-5.2c-.1-.6-.4-1.6-.9-1.7-2.7-.7-2-2.8-2-4.5v-11.7c6.1-1.1,13.7,3.3,16.8,9.7,3.6,7.5,3.2,15.3.9,22.9-6.9,22.3-20.9,38.2-43.1,46.3-15.7,5.7-31.8,8-48.3,5.1-21-3.8-38-14-49.3-32.6-.1-.1-.2-.3-.3-.4-1.2-5.4-5-5.8-9.5-4.7C224.23,1143,222.43,1143.2,220.73,1143.3Z"/><path class="cls-4" d="M231.33,1074.2a70.62,70.62,0,0,1-9.2-.1,18.16,18.16,0,0,1-7.2-2.1c-3.8-2.3-3.7-7,.1-9.4,1.8-1.1,4.3-1,5.9-2.2s2.4-3.5,3.9-4.7c4.2-3.3,12.5-2.8,15.2,1.4a8.54,8.54,0,0,0,6,4.1,8.3,8.3,0,0,1,3.4,2c2.9,2.6,2.7,6.7-.6,8.6a20.25,20.25,0,0,1-7.2,2.3,71,71,0,0,1-10.3.1Z"/><path class="cls-4" d="M377,1072.7a65.66,65.66,0,0,1-7.7-.1,14.7,14.7,0,0,1-5.9-1.5,7.34,7.34,0,0,1-2.9-4.2c-.5-2,1-3.5,2.8-4.5a4.88,4.88,0,0,1,.7-.3,11.16,11.16,0,0,0,6.4-4.4c3.5-4.6,12.3-3,15,2.2a2.59,2.59,0,0,0,1.4,1.1l1.7.3c3.1.7,5.4,3,5.4,5.4s-2,4.6-5.1,5.4a19.34,19.34,0,0,1-4.1.6c-2.5.1-5.1,0-7.7,0Z"/><path class="cls-4" d="M270.33,1006.9c-1.8,0-3.7.1-5.5,0-2.4-.1-4.4-1.6-4.4-3.3,0-2.2,1.8-3,3.6-3.6a4.52,4.52,0,0,0,1.7-1.1,5.7,5.7,0,0,1,8-1.7,6.48,6.48,0,0,1,1.7,1.6,3.87,3.87,0,0,0,1.9,1.2c1.7.6,3.4,1.3,3.4,3.5s-1.8,3-3.5,3.2a50,50,0,0,1-6.7.1Z"/><path class="cls-4" d="M353.43,997c-2.1-.1-3.7.1-5.1-.3a3.74,3.74,0,0,1-2-2.1c-.1-.5,1-1.5,1.7-2.1a8,8,0,0,1,2.1-1.5c1.1-.5,2.5-1.4,3.3-1a17.06,17.06,0,0,1,5.9,3.6c1.2,1.2.1,2.6-1.4,3A32.73,32.73,0,0,1,353.43,997Z"/><text class="cls-5" transform="translate(194.37 1219.62)">NAS IMPORT</text><text class="cls-5" transform="translate(232.34 1257.65)">EXPORT</text></g><g id="telecom"><path class="cls-4" d="M694.43,1372.3l-17-43.3h0l-1-2.6h0l-14.6-37.2-16.3-41.3a13.73,13.73,0,1,0-7.5-.4v.1l-16.5,42-15.2,38.5h0l-.3.7-15.6,39.7a4,4,0,0,0,2.3,5.2,3.82,3.82,0,0,0,3.3-.2l42.9-23,49.9,26.7a4,4,0,0,0,5.4-1.7,3.25,3.25,0,0,0,.2-3.2Zm-30-54.4-16.8-13.6,8.7-7Zm-22.7-57.8,11.6,29.4-.2.2-11.7,9.5L630,1290Zm-14.8,37.6,2.9,2.3,5.3,4.3-15.8,12.8Zm-25.1,63.7,10-25.4,18.7,10Zm20.6-28.7-5.8-3.1,24.8-20.1,22.9,18.6L639,1341.7Zm25,13.3,23.2-12.4,12.4,31.5Z"/><path class="cls-4" d="M663.93,1212.8a4,4,0,1,0-6.6,4.6,2.18,2.18,0,0,0,.4.5,25.25,25.25,0,0,1,0,32.5,4,4,0,0,0,6.1,5.2,33.41,33.41,0,0,0,.1-42.8Z"/><path class="cls-4" d="M675.13,1200.5a4,4,0,0,0-5.5,5.7,40,40,0,0,1,.7,56.7l-.7.7a3.87,3.87,0,0,0,.4,5.6,4.08,4.08,0,0,0,5.2.1c3.4-3.3,14.6-15.7,14.5-34.6A48.8,48.8,0,0,0,675.13,1200.5Z"/><path class="cls-4" d="M688.53,1187a4,4,0,0,0-6.1,5.1c.1.2.3.3.5.5,4.1,4.2,17.5,19.6,17.2,42.6a60.69,60.69,0,0,1-17.2,41.2,4,4,0,1,0,5.2,6l.5-.5a68.32,68.32,0,0,0,19.5-46.7C708.33,1209.1,693.23,1191.7,688.53,1187Z"/><path class="cls-4" d="M624.93,1212.8a4,4,0,0,0-5.6.5,33.79,33.79,0,0,0-7.8,21.7,33.29,33.29,0,0,0,7.8,21.1,4,4,0,0,0,6.6-4.6,2.18,2.18,0,0,0-.4-.5,25.25,25.25,0,0,1,0-32.5A4.19,4.19,0,0,0,624.93,1212.8Z"/><path class="cls-4" d="M601.53,1235.3a41.19,41.19,0,0,1,12.1-28.7,4,4,0,0,0-5.1-6.1c-.2.1-.3.3-.4.4-3.4,3.3-14.5,15.6-14.5,34.3s11.1,31.2,14.5,34.5a4,4,0,1,0,6-5.2c-.1-.2-.3-.3-.4-.4A41.09,41.09,0,0,1,601.53,1235.3Z"/><path class="cls-4" d="M583.23,1235.6c-.3-23,13.1-38.4,17.2-42.6a4,4,0,0,0-.5-5.6,4.06,4.06,0,0,0-5.1,0c-4.6,4.7-19.8,22.2-19.5,48.2a68.56,68.56,0,0,0,19.5,46.7,3.78,3.78,0,0,0,2.8,1.2,4,4,0,0,0,4-4,3.86,3.86,0,0,0-1.1-2.7A60.33,60.33,0,0,1,583.23,1235.6Z"/><text class="cls-5" transform="translate(565.49 1414.29)">TELECOM</text><text class="cls-5" transform="translate(548.71 1452.32)">SOLUTIONS</text></g><g id="agroSolutions"><text class="cls-5" transform="translate(965.46 1295.86)">NATIONAL</text><text class="cls-5" transform="translate(902.63 1336.28)">AGRO SOLUTIONS</text><path class="cls-4" d="M1045.15,1260.26c-10.1-1.1-20.2-2.1-30.2-3.2a137.07,137.07,0,0,1-14.1-2.1c-21.2-4.5-34.7-17.2-40.2-38.2a30,30,0,0,1-.9-7.9c-.1-13.7,0-27.4,0-41v-3.6c5.6.6,11,.9,16.4,1.7,11.1,1.7,22.3,3.2,33.4,5.5,15.3,3.1,35,19.2,35.7,41.1.5,15.6.2,31.3.3,46.9A2.93,2.93,0,0,0,1045.15,1260.26Z"/><path class="cls-4" d="M1049.65,1228.76c0-2.7-.1-5,0-7.2.9-18.5-6.8-33.2-20.8-44.5-5.5-4.5-12.3-7.4-18.8-10.7-2.2-1.1-2.9-2.3-2.6-4.6,2-11.7,6.1-22.5,14.6-31.3,7.3-7.5,14.5-15.2,21.7-22.8a50.61,50.61,0,0,0,3.7-4.7c9.2,10.1,18.4,20.3,27.7,30.3,13.7,14.8,16.7,39.1,6.1,57-4.3,7.3-10,13.7-15.4,20.3-4.8,5.8-10,11.3-15,16.9C1050.65,1228,1050.35,1228.16,1049.65,1228.76Z"/><path class="cls-4" d="M1048.75,1235.06c5.9-6.8,9.6-10.8,12.9-14.4,5-5.4,7.7-8.2,12.2-13.4,5-5.9,7.5-8.8,9.4-11.6,3.1-4.7,7.2-13,7.9-26.3,14.4-1.7,28.8-3.5,43.1-5.2-.2,17.5-.4,34.9-.5,52.4a52.33,52.33,0,0,1-15.8,27c-11.8,10.7-23.8,12.3-29.5,13.1-14.8,1.6-26,2.9-39.4,3.7C1049,1252.06,1048.75,1243.36,1048.75,1235.06Z"/></g><path class="cls-4" d="M615,788.2h10.8v44.4H615l-18-28v28h-10.8V788.2H597l18,28Z"/><path class="cls-4" d="M663.43,832.6l-2.4-7.5h-15.9l-2.5,7.5h-11.5l15.4-44.4h13.1L675,832.6Zm-15.6-15.7h10.5l-5.2-15.8Z"/><path class="cls-4" d="M677.23,796.5v-8.2h35v8.2h-12.1v36.1h-10.8V796.5Z"/><path class="cls-4" d="M718.63,832.6V788.3h10.8v44.3Z"/><path class="cls-4" d="M742.93,826.6a22.88,22.88,0,1,1,32.2,0,23.3,23.3,0,0,1-32.2,0Zm24.6-7a15,15,0,0,0,0-18.6,12.2,12.2,0,0,0-17,0,15,15,0,0,0,0,18.6A12.2,12.2,0,0,0,767.53,819.6Z"/><path class="cls-4" d="M817.53,788.2h10.8v44.4h-10.8l-18-28v28h-10.8V788.2h10.8l18,28Z"/><path class="cls-4" d="M865.93,832.6l-2.5-7.5h-15.9l-2.5,7.5h-11.4L849,788.2h13.1l15.3,44.4Zm-15.7-15.7h10.5l-5.2-15.8Z"/><path class="cls-4" d="M882.73,788.3h10.8v36.1H907v8.2h-24.3Z"/><path class="cls-4" d="M542.73,908.3V864h10.8v44.3Z"/><path class="cls-4" d="M591.83,863.9h10.8v44.4h-10.8l-18-28v28H563V863.9h10.8l18,28Z"/><path class="cls-4" d="M623.53,908.3,607.83,864h11.5l11,33.8,11-33.8h11.5L637,908.3Z"/><path class="cls-4" d="M684.73,863.9v8.2h-16v9.5h14.1v8.2h-14.2v10.3h16v8.2h-26.8V863.9Z"/><path class="cls-4" d="M709,871.9a4.88,4.88,0,0,0-3.3,1.1,3.7,3.7,0,0,0-1.3,3.1,4.14,4.14,0,0,0,1.2,3.2,7.67,7.67,0,0,0,3.1,1.9c1.3.4,2.7.9,4.3,1.3a36.76,36.76,0,0,1,4.7,1.5,19,19,0,0,1,4.3,2.1,9,9,0,0,1,3.1,3.6,11.63,11.63,0,0,1,1.2,5.5,12.33,12.33,0,0,1-4.6,9.6c-3.1,2.7-7.1,4-12,4s-9-1.2-12-3.6A12.18,12.18,0,0,1,693,895h11.5c.3,3.5,2.1,5.3,5.4,5.3a5.67,5.67,0,0,0,3.7-1.2,3.7,3.7,0,0,0,1.3-3.1,4.3,4.3,0,0,0-1.2-3.1,8.4,8.4,0,0,0-3.1-1.9,36.82,36.82,0,0,0-4.3-1.3,36.76,36.76,0,0,1-4.7-1.5,34.18,34.18,0,0,1-4.3-2.1,9.48,9.48,0,0,1-3.1-3.5,11.63,11.63,0,0,1-1.2-5.5,12.32,12.32,0,0,1,4.6-9.9c3.1-2.5,7-3.7,11.8-3.7s8.6,1.1,11.6,3.3,4.5,5.6,4.6,10.3h-11.7a6.13,6.13,0,0,0-1.5-3.7A4.43,4.43,0,0,0,709,871.9Z"/><path class="cls-4" d="M731.83,872.2V864h35v8.2h-12.1v36.1h-10.8V872.2Z"/><path class="cls-4" d="M823.43,864v44.3h-10.8v-25l-10.3,25h-8l-10.3-25v25h-10.8V864h12.4l12.8,30.5L811,864Z"/><path class="cls-4" d="M859.73,863.9v8.2h-16v9.5h14.1v8.2h-14.2v10.3h16v8.2h-26.8V863.9Z"/><path class="cls-4" d="M897.83,863.9h10.8v44.4h-10.8l-18-28v28H869V863.9h10.8l18,28Z"/><path class="cls-4" d="M915,872.2V864h35v8.2h-12.2v36.1H927V872.2Z"/><path class="cls-4" d="M640.33,978a23.3,23.3,0,0,1,0-32.5,23.67,23.67,0,0,1,29.2-2.5,20.49,20.49,0,0,1,8,10.9h-12.9a8.62,8.62,0,0,0-8.1-4.9,10.91,10.91,0,0,0-8.7,3.5,15.11,15.11,0,0,0,0,18.6,11,11,0,0,0,8.5,3.5,10,10,0,0,0,6.3-1.9,9,9,0,0,0,3.2-5.1h-12.5v-8.2h24.1v8.2a21.71,21.71,0,0,1-6.6,11.3,18.93,18.93,0,0,1-6.4,4.1,20.54,20.54,0,0,1-8.1,1.6A23.52,23.52,0,0,1,640.33,978Z"/><path class="cls-4" d="M695.33,966.8V984h-10.8V939.7H702c5.1,0,9.1,1.3,12,4a12.53,12.53,0,0,1,4.3,9.6,13.27,13.27,0,0,1-2.3,7.5,13.06,13.06,0,0,1-7.6,5.2l10.9,18h-12.6l-10-17.2Zm0-18.8v10.7H702a5,5,0,0,0,3.9-1.5,4.89,4.89,0,0,0,1.4-3.8,5.34,5.34,0,0,0-1.5-3.9A5,5,0,0,0,702,948Z"/><path class="cls-4" d="M730.73,978.1a22.88,22.88,0,1,1,32.2,0,23.3,23.3,0,0,1-32.2,0Zm24.6-7a15,15,0,0,0,0-18.6,12.2,12.2,0,0,0-17,0,15.11,15.11,0,0,0,0,18.6,12.2,12.2,0,0,0,17,0Z"/><path class="cls-4" d="M776.23,966.2V939.7H787v26.5a9,9,0,0,0,2,6.1,7.16,7.16,0,0,0,5.7,2.1,7.6,7.6,0,0,0,5.8-2.1,9,9,0,0,0,2-6.1V939.7h10.8v26.5a17.93,17.93,0,0,1-2.8,10.1,16.48,16.48,0,0,1-6.9,6.2,22.29,22.29,0,0,1-9.1,2,18.89,18.89,0,0,1-13-4.8C778,976.5,776.23,972,776.23,966.2Z"/><path class="cls-4" d="M856.33,953.3a14.53,14.53,0,0,1-3.2,8.7,12,12,0,0,1-5.1,3.5,22.12,22.12,0,0,1-8,1.4h-6.7v17.2h-10.8V939.8H840c5.1,0,9.1,1.3,12,4A12.47,12.47,0,0,1,856.33,953.3Zm-23,5.3H840a5,5,0,0,0,5.3-5.3,5.34,5.34,0,0,0-1.5-3.9,5,5,0,0,0-3.8-1.5h-6.7v10.7Z"/><path class="cls-3" d="M576.53,717.8c9.8-34.8,25.2-55.3,39.1-69,45.2-44.5,122.1-41.4,183-80.5,33.3-21.4,60.1-49.8,73-67.2-7.7,49.8-12.2,103.6-127.1,126.9-15.6,3.2-75.3,7.5-107.4,28.7C603.53,678.9,586.23,702.5,576.53,717.8Z"/><path class="cls-2" d="M573,745.6c15-32.8,33.3-50.8,49.2-62.2,51.5-37.2,127-22.4,193.1-51.8,36.2-16.1,67-40.1,82.4-55.3-15.2,48-27.8,100.5-144.9,106.1-15.9.8-75.6-4.1-110.5,12.1C605.73,711.3,584.93,732,573,745.6Z"/><path class="cls-1" d="M557.13,783.2c19.1-30.8,39.6-46.3,56.8-55.7,56-30.4,129.2-6.1,198.7-26.9,38.1-11.4,71.8-31.4,89-44.5-21.2,45.9-40.4,96.5-157.7,87.1-16-1.3-74.7-13.7-111.5-2.1C594,753.3,570.73,771.2,557.13,783.2Z"/></g></g></g></g></svg>