<svg xmlns="http://www.w3.org/2000/svg" viewBox="0 0 1510 1510"><defs><style>.cls-1{fill:#ff1212;}.cls-2{fill:#ff9515;}.cls-3{fill:#00bdff;}.cls-4,.cls-5{fill:#fff;}.cls-5{font-size:31.69px;font-family:Poppins;}</style></defs><g id="Layer_2" data-name="Layer 2"><g id="Layer_1-2" data-name="Layer 1"><path class="cls-1" d="M543.74,1101.08,368.27,1403.51a751.22,751.22,0,0,1-267.84-272.39A759.22,759.22,0,0,1,48.1,1020.25l329.13-119A407.52,407.52,0,0,0,543.74,1101.08Z"/><path class="cls-2" d="M1328.61,262.74l-266.93,224a405.88,405.88,0,0,0-226-130.56L896.22,13C1067.92,45.14,1219.12,135.48,1328.61,262.74Z"/><path class="cls-1" d="M878.5,9.85,818,353.08a409.85,409.85,0,0,0-61.68-4.65A404.46,404.46,0,0,0,561,398.38L386.7,96.56A751.13,751.13,0,0,1,756.3,0,759.48,759.48,0,0,1,878.5,9.85Z"/><path class="cls-3" d="M545.39,407.39a407.58,407.58,0,0,0-167.8,199.93L50.06,488.1A757.18,757.18,0,0,1,371.13,105.56Z"/><path class="cls-3" d="M875.46,1500.37a757.27,757.27,0,0,1-491.63-87.84l175.42-302.37a404.3,404.3,0,0,0,197,50.9,408.7,408.7,0,0,0,59.33-4.31Z"/><path class="cls-2" d="M350,754.75a405.87,405.87,0,0,0,21.1,129.57L42,1003.34C-15.66,838.41-12.66,662.29,43.14,504L371.42,624.23A405.7,405.7,0,0,0,350,754.75Z"/><path class="cls-1" d="M1510,767.67a751.24,751.24,0,0,1-102.38,368.05,760.5,760.5,0,0,1-70,100.69l-266.35-225a404.52,404.52,0,0,0,91.16-244.89Z"/><path class="cls-3" d="M1510,749.67l-347.46-1.12a404.45,404.45,0,0,0-88.2-246.66l266.43-222.11A757.27,757.27,0,0,1,1510,749.67Z"/><path class="cls-2" d="M1326,1250.17c-114.16,132.24-268.27,217.52-433.32,248.17l-59.59-344.53a405.66,405.66,0,0,0,226.47-128.7Z"/><g id="college"><path class="cls-4" d="M431.09,328.09c-9.75,3.28-19.1,6.49-28.49,9.58q-43.49,14.34-87,28.56a8.07,8.07,0,0,1-4.61.19q-64.26-20.85-128.45-41.87c-.55-.18-1.08-.45-1.93-.82,1.18-.48,2.07-.9,3-1.21q62.88-21.18,125.79-42.29a8.19,8.19,0,0,1,4.87-.14q63.48,21.26,126.92,42.69c.65.22,1.28.49,2,.76-.11.24-.14.45-.24.49-5.4,2.12-5.4,2.12-5.4,7.83,0,21.85,0,43.71.06,65.56a15.43,15.43,0,0,0,1.39,6c1.8,4,4,7.86,5.9,11.82.39.8.78,2.07.43,2.7-3.57,6.45-7.31,12.81-11.25,19.64-4.18-6.77-8.15-13.11-12-19.54-.36-.6.05-1.9.47-2.68,2.5-4.68,5.15-9.28,7.64-14a8.2,8.2,0,0,0,1.05-3.67q.09-33.83,0-67.67C431.28,329.56,431.19,329.08,431.09,328.09Zm2.78,78.83c-5.11,9-5,12.49.46,17.68,1.22-2.31,2.49-4.56,3.58-6.9a3.36,3.36,0,0,0,.18-2.46C436.86,412.55,435.43,409.94,433.87,406.92Z"/><path class="cls-4" d="M375.35,356.34c1.32,5.49,2.54,10.54,3.77,15.59a7.47,7.47,0,0,1-2.7,7.82,131.54,131.54,0,0,1-13.67,10.75c-14.46,9.29-29.72,17-46.36,21.68a21.61,21.61,0,0,1-13-.29,151.08,151.08,0,0,1-51-28.71,33,33,0,0,1-3.28-3.5,8.33,8.33,0,0,1-1.73-8.87c1.5-4.43,2.27-9.1,3.42-14,1.08.3,2,.52,2.92.81,18.91,6,37.8,12,56.74,17.84a9.17,9.17,0,0,0,5.14,0c18.7-5.95,37.36-12,56-18.07C372.73,357,373.88,356.75,375.35,356.34Z"/><text id="telecom_solutions" data-name="telecom solutions" class="cls-5" transform="translate(229.59 452.45)">AVIATION<tspan x="8.72" y="38.03">COLLEGE</tspan></text></g><g id="tours"><path class="cls-4" d="M1204.74,439.79c3-4,7.18-6.4,11.61-8.7-.26-.58-.48-1.09-.72-1.6-1.36-2.83-.45-4.59,2.67-5a10,10,0,0,1,10.56,5c.39.65.76,1.32,1.14,2,0,0,.12,0,.23.05a41.39,41.39,0,0,1,1.4-4.06,7,7,0,0,1,5.83-4.39c2.65-.31,4,1.07,3.65,3.72-.15,1-.47,1.95-.68,2.82,2.45.86,4.83,1.54,7.08,2.53a17.59,17.59,0,0,1,4.16,2.68c2.41,2.06,2.13,3.7-.89,4.59a72.63,72.63,0,0,1-7.51,1.44,6.18,6.18,0,0,1-1.1.08,70.7,70.7,0,0,1,6.54,5.7,15.79,15.79,0,0,1,4.08,9.32c.28,2.88-.49,3.69-3.37,3.82a22.31,22.31,0,0,1-10.51-2.48c-.46-.22-.9-.47-1.36-.69-.09,0-.23,0-.07,0l2,8.39,1.54-.25,1.51,8.34,1.65-.15,1.66,9.28,2.28-.55,1.83,10.15,2.33-.56,2.08,11.54c11-11.55,24.28-17.57,40.11-17s28.64,7.56,38.71,19.9c2.91-1.89,2.64-5.41,4.37-8l1.52.3c.2-.45.39-.92.61-1.37q2.48-5.16,5-10.31c2.55-.65,1.8-3.72,3.24-4.75,1.78-1.27,2.3-2.92,3-4.66,0-.11.17-.27.25-.27,2.74.25,1.68-2.32,2.51-3.05-3.37-1.1-6.73-2-10-3.28-2.69-1.07-2.84-2.32-.86-4.45a12.71,12.71,0,0,1,10.47-4.23,42.26,42.26,0,0,1-3.33-3.92,3.32,3.32,0,0,1-.5-2.61c.18-.48,1.55-.8,2.33-.71,2.65.3,5.28.81,8.14,1.28-.1.09.09,0,.16-.16,1.43-3,2.89-3.24,5.21-.77a6.27,6.27,0,0,1,1.6,6.37c-.16.52-.28,1.06-.46,1.71a36,36,0,0,1,3.74-1.31,3.79,3.79,0,0,1,2.41.07c1,.57,2.33,1.37,2.66,2.36.2.59-1.23,1.74-2,2.6a1.32,1.32,0,0,1-.49.34c.88,2.58,1.82,5,2.48,7.47a2.81,2.81,0,0,1-.63,2.5,3.27,3.27,0,0,1-2.61-.44c-1.6-.91-3.06-2.06-4.74-3.22a12.59,12.59,0,0,1-1.46,11.59c-1.67,2.5-2.93,2.69-4.75.4a68.6,68.6,0,0,1-4-6.31c-.56.85-1.36,2-2.07,3.18-.35.59-1.55,1.12-.29,2a2.44,2.44,0,0,1-.43,1c-.7,1-1.49,1.92-2.14,2.94-.23.35-.09.91-.18,1.36a3.37,3.37,0,0,1-.4,1.28c-1,1.36-2,2.67-3.08,4.14l1.25,1.11-4.1,5.46,1.26,1.15-4.89,6.54,2.18,1.29c-1.2,1.58-2.3,3.19-3.56,4.65a2.8,2.8,0,0,0-.49,3.27c4.84,12.29,5.15,24.74.24,37-7.42,18.52-21.19,29.66-41,32.5a50.78,50.78,0,0,1-55.75-35.36,49.27,49.27,0,0,1,1.47-34.47,4.31,4.31,0,0,0-.14-4.3,23.24,23.24,0,0,1-1.9-4c-.35-.93-1.68-1.81-.36-3,.13-.13-.31-.91-.52-1.36l-4.42-9.27,2.22-1c-1.22-2.57-2.44-5.07-3.58-7.62-.31-.67-1.33-1.45,0-2.21.11-.07-.13-.93-.33-1.36-1.07-2.32-2.18-4.62-3.34-7l1.39-1-3.55-7.53,1.47-1-3-6.48,1.85-1-2.59-5.4a31.41,31.41,0,0,1-13.2,7.74,10.67,10.67,0,0,1-1.49.32c-2.41.34-3.16-.07-3.58-2.51a17.18,17.18,0,0,1,4.47-15.38c.3-.33.63-.63.94-.95,0,0,0-.11,0-.25-3.69-.28-7.7.67-10.76-2.44Zm97.15,108V528.45H1282.5v19.38Zm-.13-23.75c-1-5.55-1.82-10.83-2.81-16.08-.08-.41-1-.93-1.53-.94-3.51-.07-7,0-10.53,0-1.22,0-1.65.51-1.81,1.65-.23,1.7-.71,3.37-1,5.07-.5,3.43-.91,6.87-1.36,10.31Zm1.67-17c.8,5.81,1.48,11,2.28,16.14a2.07,2.07,0,0,0,1.39,1.29c4.34.72,8.69,1.32,13,2,.85.13,1.7.29,3.22.54-1.11-5.48-2.13-10.57-3.2-15.65a1.4,1.4,0,0,0-.92-.8C1314.05,509.4,1308.84,508.28,1303.43,507.09Zm19.74,24.19-17-2.71v19.18c5.44-1,10.76-1.94,16-3a1.53,1.53,0,0,0,.87-1.19C1323.2,539.64,1323.17,535.69,1323.17,531.28Zm-42.39-24c-5,1.11-9.84,2.15-14.65,3.28-.37.09-.73.84-.84,1.34q-1.21,5.5-2.29,11c-.26,1.38-.31,2.81-.44,4.15,5-.75,9.74-1.49,14.48-2.14a1.63,1.63,0,0,0,1.64-1.67C1279.31,518.11,1280,513,1280.78,507.23Zm42.2,42.09c-5.79.84-11,1.56-16.1,2.4a2.05,2.05,0,0,0-1.26,1.39c-.82,4.44-1.52,8.91-2.25,13.37a14.74,14.74,0,0,0,0,1.66c5.07-1,9.92-2,14.76-3.08a2,2,0,0,0,1.37-1C1320.7,559.22,1321.79,554.4,1323,549.32Zm-60.86-4.44,16.05,2.6V529.35c-.22-.14-.27-.2-.32-.2-5,.79-9.92,1.57-14.87,2.44-.35.06-.81.8-.82,1.23C1262.1,536.76,1262.12,540.7,1262.12,544.88Zm36.69,23.25,2.76-15.94h-18.73c1,5,1.85,9.89,2.85,14.74a1.89,1.89,0,0,0,1.35,1.15C1290.86,568.18,1294.68,568.13,1298.81,568.13Zm-17.53-.14-2.71-16.22-16.14-2.43c1.16,5,2.21,9.65,3.34,14.28a1.78,1.78,0,0,0,1,1.15C1271.52,565.87,1276.24,566.89,1281.28,568Zm16.32-77.66c1.4,3.85,2.82,7.52,4,11.25a2.19,2.19,0,0,0,2.09,1.72c4.46.71,8.9,1.52,13.35,2.29.36.06.73.06,1.51.13-1.57-3-3-5.77-4.41-8.55a8.25,8.25,0,0,0-5.25-4.33A44.43,44.43,0,0,0,1297.6,490.33Zm-51.79,42.6c3.71-1.39,7.18-2.81,10.73-4a2.44,2.44,0,0,0,1.87-2.43c.48-3.73,1.07-7.43,1.63-11.15.14-.88.35-1.75.52-2.63l-.55-.43c-3.31,2-6.64,3.93-9.94,5.94a2.87,2.87,0,0,0-1.09,1.27A44.63,44.63,0,0,0,1245.81,532.93Zm93.65,0a45.42,45.42,0,0,0-3.3-13.81,1.28,1.28,0,0,0-.47-.58c-3.4-2-6.8-4.06-10.21-6.09.2,4,1,7.4,1.18,10.87s1.12,5.91,5,6.34a13.06,13.06,0,0,1,3.38,1.29C1336.46,531.53,1337.82,532.17,1339.46,532.91Zm-53-42.73c-3,.75-5.83,1.4-8.62,2.2-1.46.42-3.25.76-4.16,1.78a34.13,34.13,0,0,0-6.2,11.24c4.68-.72,9.15-1.4,13.61-2.13a1.61,1.61,0,0,0,1.09-.83C1283.62,498.5,1285,494.53,1286.48,490.18Zm11.08,93.57a42.67,42.67,0,0,0,13.8-3.58,1.3,1.3,0,0,0,.55-.49c1.93-3.17,3.84-6.35,5.93-9.81-5.5.8-10.39,1.51-15.28,2.25a1.25,1.25,0,0,0-.79.67C1300.37,576.38,1299,580,1297.56,583.75Zm42.16-40.57c-4.4,1.68-8.21,3.1-12,4.63-.41.16-.71,1-.81,1.5-.65,3.45-1.21,6.91-1.83,10.36-.19,1-.46,2-.84,3.64,3.43-1.9,6.4-3.38,9.17-5.17a7.05,7.05,0,0,0,2.67-3.27C1337.44,551.17,1338.45,547.36,1339.72,543.18Zm-93.79.56c.65,2.63,1.3,5,1.81,7.43a11.82,11.82,0,0,0,7.47,9c1.88.78,3.69,1.74,5.63,2.66-.83-4.78-1.57-9.17-2.4-13.55a2.23,2.23,0,0,0-1.14-1.43C1253.67,546.43,1250,545.18,1245.93,543.74ZM1268,569.82c.68,1.43,1.34,2.67,1.86,4,2.17,5.39,6.2,8.3,11.9,9.05,1.77.23,3.51.6,5.37.92-1.51-3.83-2.85-7.32-4.27-10.77a1.88,1.88,0,0,0-1.19-1C1277.27,571.24,1272.82,570.57,1268,569.82Zm24.49-79.94-.83.09a50.82,50.82,0,0,0-4.93,12.7h11.07C1296,498.25,1294.26,494.06,1292.53,489.88ZM1257.87,533a49.42,49.42,0,0,0-12.7,5.62l12.7,5.1Zm81.47,5.38-.09-.9-11.69-5v11.07Zm-41.8,34.2H1287l5,11,.7,0Zm-43.85-61.84c2.82-1.15,5.29-2.13,7.73-3.19a2.15,2.15,0,0,0,1-1c1-2.5,2-5,3.15-7.89A45.82,45.82,0,0,0,1253.69,510.72Zm66.44-11.81c1.13,2.86,2.06,5.28,3,7.68a2,2,0,0,0,.77,1c2.42,1,4.87,2,7.67,3.17A46.17,46.17,0,0,0,1320.13,498.91Zm-54.81,76.86.5-.5c-.92-2.16-1.83-4.33-2.78-6.47a1.94,1.94,0,0,0-.83-.95c-2.32-1-4.67-1.9-7-2.84l-.41.48Zm54.56-.78.47.43,10-9.7-.42-.47c-2.17.86-4.34,1.71-6.49,2.62a1.86,1.86,0,0,0-.91.86C1321.59,570.8,1320.74,572.9,1319.88,575Z"/><path class="cls-4" d="M1207.86,574.9c1.57-8.41,14.32-39,17-40.73,2.43,6.88,6.64,12.74,10.73,18.65s8.3,11.6,12.61,17.61l-10.81,1.26a41.55,41.55,0,0,0,9,11c13.42,11.73,29.22,16.26,46.8,15.17a77.08,77.08,0,0,0,30.73-8.07c15.85-8.15,25.52-21.19,28.71-38.83a18,18,0,0,0-.11-5c-.19-1.74-.8-3.28-3.11-3.24V526.65c6.77-.64,14.09,3.66,17.16,10a29.34,29.34,0,0,1,1.73,20.22c-6.29,25.49-21.88,42.77-46.63,51.61a96.18,96.18,0,0,1-37.43,5.79c-22-1.09-40.7-9.23-55.16-26-3.36-3.92-5.74-8.71-8.39-13.2a2.14,2.14,0,0,0-2.5-1.32C1214.75,574.18,1211.34,574.51,1207.86,574.9Z"/><path class="cls-4" d="M1305.59,443.53c-2.66,2.36-4.3,2.3-6.74-.22a4.27,4.27,0,0,1-5.26,1.65v28.2h5.34c4.47,0,9,.06,13.42-.05a3.7,3.7,0,0,0,2.39-1.1c4-4.42,8-8.93,12.12-13.55l5.26,4.69c-4.21,4.74-8.26,9.41-12.44,14a2.35,2.35,0,0,0-.36,3.3c1.4,2.42,2.61,5,4,7.69l-6.25,3.25c-1.67-3.21-3.37-6.26-4.86-9.41a2.72,2.72,0,0,0-2.94-1.75q-18,.09-36,0a3.1,3.1,0,0,0-2.89,1.37c-1.63,2.27-3.42,4.43-5.21,6.72l-5.56-4.35c2.74-3.51,5.37-6.95,8.11-10.29.34-.41,1.26-.47,1.92-.48,6.32,0,12.65,0,19,0h2.09V445c-2.28.64-4.2.47-5.51-1.53-2.77,2.7-4.74,2.66-7-.12-2.93,2.33-4.37,2.31-6.82-.17a13.71,13.71,0,0,1-1.32,1.21,3.43,3.43,0,0,1-4,.22,3.73,3.73,0,0,1-2-3.66,13.33,13.33,0,0,1,3.64-8.26c6.22-7.07,14.3-10.07,23.5-10.22,8.82-.16,16.76,2.43,23.34,8.5,2.83,2.61,4.92,5.73,5.22,9.72.18,2.45-.58,3.88-2.32,4.57-2,.78-3.47,0-4.69-1.52C1309.67,446.33,1308.18,446.3,1305.59,443.53Z"/><path class="cls-4" d="M1394,520.55a31.18,31.18,0,0,1-17.12,1.53,24.5,24.5,0,0,1-6.72-2.12c-6.94-3.66-13.67-2.72-20.41.41l-1.8.85-2.12-3.49c8.07-4,16-6.25,24.65-2,7,3.41,14.24,3.63,21.81,1.16Z"/><path class="cls-4" d="M1393.15,523.69c.8,4,1.22,7.34,2.18,10.52s2.48,6.23,3.79,9.41h-19.66C1383.72,536.82,1387.17,529.72,1393.15,523.69Z"/><path class="cls-4" d="M1364.58,576.79l.75-3.72c2.5.17,4.84.45,7.18.47a25.33,25.33,0,0,0,12.74-3.47c5.45-3,11.6-1.56,15.67,3.61l-3,2.49-1.08-1c-3.18-2.92-6.39-3.46-10.11-1.27-6.76,4-14,4.24-21.47,3.16A4.18,4.18,0,0,1,1364.58,576.79Z"/><path class="cls-4" d="M1374.87,559.08c.43-1.84.71-3,.89-3.77,2-.51,3.83-.65,5.33-1.44,4.76-2.48,9.08-1.3,13.58,1.07l-1.66,3.3c-.25.06-.33.1-.37.08-4.09-2.2-8-2-12.14.2C1379.06,559.3,1377,558.91,1374.87,559.08Z"/><path class="cls-4" d="M1368.18,595.09l-1.9-3.26c5.19-4.23,14.81-4.73,18.78.24-.44.4-.89.82-1.36,1.22s-1,.79-1.55,1.25C1377.44,591,1372.88,592.74,1368.18,595.09Z"/><text id="telecom_solutions-2" data-name="telecom solutions" class="cls-5" transform="translate(1225.47 650.75)">TOURS &amp;<tspan x="10.71" y="38.03">TRAVEL</tspan></text></g><g id="tolloCash"><path class="cls-4" d="M1152,158.77c-3.76,3.71-7.62,7.48-11.43,11.29q-29.91,29.88-59.82,59.75a6,6,0,0,0-2,4.69c.07,19.29,0,38.59,0,57.88v3.21H946.58V105.71H1073l.33,4,4.5-6.11,7.44,9,7-8.16,7.22,8.61,3.65-3.16ZM958.13,117.35V264.18h109V243.59l-13.91,14.34-4.06-3.68-7.09,7.82-7.7-8.55-6,7.32-53.59-53.59,89.9-89.9Zm143.6,66.32a23.64,23.64,0,1,0-23.65,23.63A23.82,23.82,0,0,0,1101.73,183.67Zm-8.82-69.86q-47.55,47.52-94.76,94.7l44.1,44.1,3-2.49L1003.8,208.6c30.77-30.77,61.37-61.36,92.12-92.12Zm-14.54-.6-94.85,94.86L1028,252.5c.66-.69,1.53-1.6,2.66-2.8l-41.61-41.55,92.26-92.21ZM1003.9,281.33a7.39,7.39,0,1,0,14.78-.22,7.39,7.39,0,0,0-14.78.22Z"/><path class="cls-4" d="M1066,174.23l-2.06-2.4,2.56-2.24,2.34,1.88c4.17-3.78,8.59-7.37,13.79-.82l-3.9,3.14c-2.17-1.7-4.35-1.27-6.36,1.34l6,5.16c2.72-1.35,5-5.5,9.24-4.35a12.51,12.51,0,0,1,5.65,4c3.9,4.59,3.69,7-2.33,13.75l2.27,2.53-2.36,2.48-2.62-2.22c-7.07,6.56-10.34,6.19-15.06.79l3.86-3.3c3.92,2.49,4.22,2.46,7.62-1.11l-6.39-5.63c-8.38,5.26-9.92,5.36-14.29.67C1060,183.64,1060.23,181.88,1066,174.23Zm21.5,15.66c2.88-2.72,3.1-5.15.66-7.36-2.14-1.93-3.86-1.47-6.45,1.76Zm-18-12c-2.79,2.87-3.06,4.72-1.07,6.59s4.08,1.37,6.38-1.35C1073.09,181.46,1071.36,179.76,1069.5,177.91Z"/><text id="telecom_solutions-3" data-name="telecom solutions" class="cls-5" transform="translate(961.5 340.76)">TOLLO<tspan x="4.04" y="38.03">CASH</tspan></text></g><g id="cargoLogistics"><path class="cls-4" d="M212,617.09a44.1,44.1,0,0,1,6,2.08,15.83,15.83,0,0,1-2.94,29.09,1.77,1.77,0,0,0-1.56,2.11c.1,2.89,0,5.79.08,8.68a3.07,3.07,0,0,0,.94,2q5.88,4.86,11.9,9.52a4.29,4.29,0,0,0,2.32.82c2.84.16,4,1.3,4,4.21q0,9.75,0,19.5v1.81c.71,0,1.29.1,1.88.1h19.21c3.49,0,4.51,1,4.51,4.57v16.6c0,2.85-.34,3.32-2.93,4.42a1.42,1.42,0,0,0-.72,1c-.93,7.66-1.87,15.31-2.71,23-.41,3.76-.35,3.8,3.13,5.56,4,2,7.24,4.82,8.75,9.25a13.4,13.4,0,0,1-.55,10.94c-2.44,4.55-5.25,8.91-8,13.48l-10.65-5.09c-7.59-3.65-15.19-7.28-22.77-11a21.34,21.34,0,0,0-19.65.14c-10.57,5.18-21.11,10.42-31.67,15.64l-1.8.87-2.1-3.35c-1.92-3.11-4-6.14-5.74-9.34a14.66,14.66,0,0,1,5.57-20c1.52-.9,3.12-1.69,4.63-2.62a1.7,1.7,0,0,0,.8-1.23c-.93-9-1.93-18-2.94-27.17-1,0-1.94,0-2.89,0-2.62-.09-3.8-1.27-3.81-3.88,0-5.89,0-11.78,0-17.67,0-2.88,1.16-4.07,4.07-4.08,6.51,0,13,0,19.52,0h2V675.75c0-3.11,1.11-4.2,4.19-4.33a3.48,3.48,0,0,0,1.92-.65c4.13-3.22,8.2-6.49,12.28-9.77.33-.27.77-.69.78-1,.06-2.42,0-4.84,0-7.61-1.32,1-2.37,1.72-3.4,2.5Q170.87,679.46,138,704.07a2.88,2.88,0,0,0-1.29,2.65c0,6.8,0,13.61,0,20.41a7.73,7.73,0,0,0,.49,2.65c2.78,7.52,5.63,15,8.39,22.53a10.71,10.71,0,0,1,.64,3.55q.06,24.38,0,48.75c0,3.42-1,4.42-4.46,4.42H93.06c-3.25,0-4.31-1-4.33-4.25,0-2.78,0-5.57,0-8.53h20.82c.41,0,.81,0,1.22,0,2.12-.1,3.54-1.41,3.52-3.24s-1.46-3.13-3.59-3.14c-6.7,0-13.41,0-20.12,0H88.84v-6.4h1.64c4.53,0,9,0,13.57,0,2.37,0,3.87-1.31,3.85-3.22s-1.47-3.15-3.74-3.16c-4.53,0-9,0-13.57,0H88.83c0-.72-.08-1.26-.08-1.8,0-6.5,0-13,0-19.5a10.67,10.67,0,0,1,.66-3.54c2.8-7.62,5.67-15.21,8.52-22.81a3.72,3.72,0,0,0,.32-1.16c0-3.9,0-7.81,0-11.88-.62,0-1.15-.09-1.69-.09-4.42,0-8.84,0-13.26,0A4.49,4.49,0,0,1,79.05,714c-1.68-2.72-3.59-5.29-5.25-8a7.09,7.09,0,0,1-1-3.38c-.1-5.79,0-11.58,0-17.36,0-3,1.14-4.16,4.13-4.16,11.59,0,23.18,0,34.76,0a6.66,6.66,0,0,0,3.26-.9Q154.2,656,193.47,631.8a2.81,2.81,0,0,0,1.21-1.54c1.7-7.15,6-11.53,13.3-13a1.64,1.64,0,0,0,.39-.21Zm-94.41,83a4.49,4.49,0,0,0,.66.12c4.47,0,8.94,0,13.41,0a3.33,3.33,0,0,0,1.75-.73q34.26-25.63,68.49-51.32c.34-.25.63-.56,1.08-1a16.74,16.74,0,0,1-7.77-8.9c-.42.23-.69.35-1,.51q-37.86,23.28-75.73,46.55a2,2,0,0,0-1.06,2c0,3.8,0,7.61,0,11.41C117.52,699.22,117.58,699.66,117.62,700.14Zm130.74,22.64H175.51c.9,8.19,1.78,16.26,2.67,24.48.51-.24.78-.36,1-.5,7.19-3.89,14.34-7.83,21.55-11.66a22.17,22.17,0,0,1,21.72-.12c7.29,3.8,14.55,7.66,21.82,11.48.34.18.72.29,1.2.48C246.47,738.84,247.41,730.9,248.36,722.78ZM111,709.85c0-.67.08-1.12.08-1.56,0-6.4,0-12.79,0-19.18,0-1.39-.43-1.67-1.73-1.66-9.54,0-19.08,0-28.62,0-.54,0-1.07,0-1.69.08a64.47,64.47,0,0,1-.06,7.76,16.64,16.64,0,0,0,4.16,13.41,2.62,2.62,0,0,0,2.25,1.14c8,0,15.93,0,23.9,0Zm-14.38,41.5h41.64a4.55,4.55,0,0,0-.13-.82c-2.17-5.79-4.38-11.57-6.5-17.37-.34-.91-.9-.93-1.65-.93q-12.48,0-25,0a1.56,1.56,0,0,0-1.76,1.22c-1.91,5.23-3.9,10.44-5.86,15.67C97.16,749.8,96.93,750.5,96.65,751.35Zm113.67-108.7a9.58,9.58,0,1,0-9.55-9.64A9.61,9.61,0,0,0,210.32,642.65Zm6.75,28.69c-2.24-1.79-4.18-3.36-6.16-4.9a1,1,0,0,0-.92-.14c-2.05,1.58-4.06,3.22-6.34,5Z"/><path class="cls-4" d="M251.87,791.34l-7.09,11.51c-.88,1.43-1.78,2.84-2.64,4.28a3.7,3.7,0,0,1-3.39,1.91q-26.82,0-53.63,0a3.51,3.51,0,0,1-3.2-1.7c-3.19-5.06-6.36-10.14-9.63-15.36.57-.32,1.07-.62,1.6-.88q15.48-7.67,31-15.32a15.39,15.39,0,0,1,14.07-.34c10.76,5.13,21.49,10.32,32.23,15.49C251.33,791,251.5,791.13,251.87,791.34Z"/><path class="cls-4" d="M210.38,636.24A3.2,3.2,0,0,1,207.2,633a3.15,3.15,0,0,1,6.3,0A3.17,3.17,0,0,1,210.38,636.24Z"/><text id="telecom_solutions-4" data-name="telecom solutions" class="cls-5" transform="translate(94.31 847.39)">CARGO &amp;<tspan x="-10.17" y="38.03">LOGISTICS</tspan></text></g><g id="research"><g id="Layer_1-2-2" data-name="Layer 1-2"><g id="_Radial_Repeat_" data-name=" Radial Repeat "><circle class="cls-4" cx="608.38" cy="217.26" r="19.01"/></g><g id="_Radial_Repeat_2" data-name=" Radial Repeat 2"><circle class="cls-4" cx="573.13" cy="130.18" r="19.01"/></g><g id="_Radial_Repeat_3" data-name=" Radial Repeat 3"><circle class="cls-4" cx="645.05" cy="69.74" r="19.01"/></g><g id="_Radial_Repeat_4" data-name=" Radial Repeat 4"><circle class="cls-4" cx="724.75" cy="119.47" r="19.01"/></g><g id="_Radial_Repeat_5" data-name=" Radial Repeat 5"><circle class="cls-4" cx="702.09" cy="210.64" r="19.01"/></g><path class="cls-4" d="M742.11,168.59A64,64,0,0,1,706.81,79l-11.08-7.13a64,64,0,0,1-97.19,4l-4.21-4.55-4.81,3.91,0,0-.38.31-4.47,3.87L588,84.26a64.22,64.22,0,0,1,2.47,68.24,63.47,63.47,0,0,1-26.57,25l4.75,12.29a63.84,63.84,0,0,1,80.6,52.9l13.17-.67a64,64,0,0,1,76.17-60.45l6.09,1.2,3.19-12.14Zm-82.52,36.89A76.87,76.87,0,0,0,654.5,216a77.46,77.46,0,0,0-64.07-41.72,77.07,77.07,0,0,0,19.4-73.42,77.06,77.06,0,0,0,50.44,7.25,77.45,77.45,0,0,0,26.91-10.82A77.32,77.32,0,0,0,714.61,168,77.19,77.19,0,0,0,659.59,205.48Z"/></g><text id="telecom_solutions-5" data-name="telecom solutions" class="cls-5" transform="translate(560.55 283.31)">RESEARCH &amp;<tspan x="-21.71" y="38.03">CONSULTANCY</tspan></text></g><g id="airways"><text id="telecom_solutions-6" data-name="telecom solutions" class="cls-5" transform="translate(1225.49 1052.74)">NATIONAL<tspan x="6.08" y="38.03">AIRWAYS</tspan></text><path class="cls-4" d="M1356.36,932.89l8.17-9.9a4.81,4.81,0,1,0-7.41-6.14l-6.33,7.67-6.22-9.29c3.19-3.83,6.34-7.36,9.33-11,35.92-43.3,47.36-69.44,35-79.68s-35.89,6-71.81,49.47c-3,3.65-6,7.41-9,11.25l-10.29-4.34,6.33-7.68a4.81,4.81,0,0,0-7.4-6.14l-8.22,9.91-44.67-18.81a27.93,27.93,0,0,0-32.59,8,4.81,4.81,0,0,0,.62,6.76,6.42,6.42,0,0,0,.53.38l71.43,44.41c-6.68,9.52-12.93,18.92-18.35,27.63-2.18,3.53-4.06,6.72-5.83,9.71l-30-8a6.22,6.22,0,0,0-7.22,1.77l-1,1.3a1.57,1.57,0,0,0,.25,2.21.51.51,0,0,0,.13.09l29.59,18.39c-7.06,15.35-5.49,20.34-2.19,23a7.3,7.3,0,0,0,4.84,1.77c3.53,0,8.83-2.08,17.39-8.26L1295,1013a1.57,1.57,0,0,0,2.22.11l.12-.11,1.07-1.27a6.22,6.22,0,0,0,.39-7.45L1285.55,976c2.55-2.2,5.27-4.64,8.13-7.33,7.68-7,15.58-14.89,23.64-23.26l57.08,61.64a4.68,4.68,0,0,0,7.1-.19,28.28,28.28,0,0,0,1.68-33.51Zm-133.49-64.33a18.36,18.36,0,0,1,17.19-1.5l61.84,26c-4.26,5.52-8.45,11.17-12.52,16.81Zm33,117.11c1.88-12.63,32.35-61.61,68.58-105.52s50.71-48.78,55.92-48.78a3.84,3.84,0,0,1,2.38.61c.46.39,10.48,9.75-36.23,66.37C1310.22,942.22,1267.89,981.45,1255.84,985.67Zm121.24,10.17-53.19-57.58c4.76-5.06,9.48-10.24,14.12-15.35l37.31,55.81a18.6,18.6,0,0,1,1.76,17.12Z"/></g><g id="export"><path class="cls-4" d="M275.27,1056c-.39-6.17-3.18-11.11-5.91-16s-5.69-9.74-8.68-14.81a68.59,68.59,0,0,0,7.87-.06c4.17-.49,6.95,1.14,9.4,4.45a142.23,142.23,0,0,0,9.43,11,3.27,3.27,0,0,0,2.63,1c11.16-3.25,22.27-6.63,33.8-10.11-6.29-11.44-12.5-22.71-18.83-34.2,5.8-1.57,10.92-1.27,15.5,2.54,9.79,8.13,19.62,16.2,29.37,24.37a3.58,3.58,0,0,0,4,.74c9-3.13,18-6.3,27.13-9.11,6.8-2.09,13.24-1,18.49,4.12,6.14,6,4.76,15.21-3.16,18.32-11.18,4.41-22.65,8.09-34,12.07a52.69,52.69,0,0,1-6.64,2.1c-2.7.54-3.35,2.15-3.64,4.64-.79,6.68-1.87,13.31-2.92,20.5a16.91,16.91,0,0,1-1.4-1.63A54.68,54.68,0,0,0,328.87,1057a10,10,0,0,1-2-2c-3.42-1.1-6.36-2.1-9.33-3a53.43,53.43,0,0,0-40,3C276.87,1055.35,276.18,1055.62,275.27,1056Z"/><path class="cls-4" d="M301.29,1153.38a50.14,50.14,0,0,1-50-49.82c-.17-27.17,22.3-49.81,49.55-50,27.59-.14,50.24,22.25,50.24,49.67A49.94,49.94,0,0,1,301.29,1153.38Zm8.95-58.23H291.5V1114h18.74Zm-.11-4.3c-.91-5.36-1.75-10.4-2.67-15.42-.08-.43-.7-1.07-1.07-1.08-4-.08-8.06,0-12.3,0-.89,5.72-1.71,11.1-2.55,16.55Zm20.88,7-16.46-2.63v18.57c5.17-.91,10.14-1.75,15.07-2.73a2.22,2.22,0,0,0,1.33-1.63C331.07,1105.75,331,1102,331,1097.89Zm-.09-4.31c-.71-4-1.54-7.91-2-11.83-.37-3-1.78-4.42-4.76-4.86-4.13-.6-8.21-1.52-12.42-2.33.9,5.89,1.73,11.27,2.54,16.52Zm-59.25.19c5.4-.79,10.08-1.43,14.73-2.23.5-.09,1.11-1.09,1.22-1.74.72-4.34,1.33-8.69,1.95-13a16.81,16.81,0,0,0,0-2.16c-4.5.94-8.72,1.78-12.92,2.74-.7.16-1.74.72-1.86,1.27C273.68,1083.51,272.74,1088.45,271.67,1093.77Zm40,39.92c5.13-1.06,10-2,14.79-3.08a1.6,1.6,0,0,0,1-.91c1.1-4.69,2.13-9.4,3.21-14.22-5.52.79-10.44,1.45-15.34,2.25a2.29,2.29,0,0,0-1.46,1.51C313.08,1123.8,312.44,1128.38,311.65,1133.69Zm-24.56-20v-18.17l-15.31,2.67v13Zm7.48,20.07h12.71c.89-5.2,1.75-10.23,2.64-15.45H291.8C292.74,1123.5,293.64,1128.53,294.57,1133.72Zm-22.64-18.26c1.07,4.7,2,9,3.05,13.23.15.65.61,1.62,1.1,1.74,4.61,1.1,9.26,2,14.12,3.08-.95-5.68-1.8-10.71-2.63-15.67Zm34.58-57.94-.27.87c1.31,3.66,2.58,7.33,3.94,11,.17.48.67,1.1,1.1,1.17,4.88.81,9.77,1.52,15.18,2.34-1.59-3-2.94-5.77-4.47-8.4-.65-1.11-1.48-2.53-2.55-2.92C315.2,1060,310.83,1058.83,306.51,1057.52Zm-51.4,42.16c4.38-1.62,8-2.91,11.52-4.27a1.87,1.87,0,0,0,1.08-1.11c.76-4.79,1.43-9.6,2.18-14.78-2.25,1.14-4.3,2-6.2,3.19-1.69,1-4,2-4.66,3.55C257.35,1090.41,256.45,1094.88,255.11,1099.68ZM333,1080.09c.63,4.51,1.23,9,1.92,13.51a2.17,2.17,0,0,0,1,1.52c3.52,1.4,7.09,2.68,10.65,4C347,1089.23,342.14,1082.4,333,1080.09Zm-37.88-21.68c-9.73.22-16.16,5.32-18,14.23,4.32-.66,8.65-1.29,13-2a2.15,2.15,0,0,0,1.24-1.28C292.59,1065.77,293.8,1062.17,295.11,1058.41Zm37.34,69.88c8.85-2.21,14.6-9.93,13.83-18.53-3.47,1.32-7,2.61-10.41,4a2.19,2.19,0,0,0-1.2,1.35C333.87,1119.49,333.17,1123.9,332.45,1128.29Zm-26.4,20.62c11.92-1.14,17.55-5.17,18.9-13.36-4.47.67-9,1.31-13.43,2a2.05,2.05,0,0,0-1.44,1C308.69,1141.93,307.43,1145.33,306.05,1148.91Zm-49.72-38.7c-.33,8.73,6.09,16.91,13.84,17.73-.7-4.24-1.37-8.48-2.15-12.7a2.18,2.18,0,0,0-1.23-1.33C263.39,1112.64,260,1111.48,256.33,1110.21Zm21.39,25.25c1.83,8.28,9,13.49,18.11,13.18-1.28-3.29-2.52-6.61-3.91-9.86a2.71,2.71,0,0,0-1.76-1.35C286,1136.69,281.87,1136.1,277.72,1135.46Zm28.65-65.34-5.25-12.53-1,.07-4.94,12.46Zm40.15,34.74.07-.94-11.31-4.83v10.7Zm-79.18,5.1V1099.3l-11.76,5,.06.9Zm33.27,38.63h.85l4.48-10.51H295.85C297.52,1141.79,299.07,1145.19,300.61,1148.59Zm-37.15-71.54c7.59-1.76,10.24-4.52,10.55-10.85Q268.73,1071.63,263.46,1077.05Zm75.43.43a41.65,41.65,0,0,0-10.35-10.66C329.38,1073,332.72,1076.57,338.89,1077.48Zm-63.93,64c-.92-6.61-4.54-9.53-10.42-10.1Zm53.68-1,9.05-8.79C331.51,1132.42,329.35,1134.5,328.64,1140.46Z"/><path class="cls-4" d="M220.67,1143.31c5.32-13.68,9.42-27.24,16.4-40.13,6,13.46,15,24.12,23.1,35.77l-10.34,1.23a41,41,0,0,0,11.78,13.39c13.59,10.23,29,13.54,45.66,11.73,10.85-1.18,21.33-3.85,30.63-9.69,13.28-8.34,21.32-20.44,24-36a18.2,18.2,0,0,0-.33-5.18c-.07-.62-.44-1.59-.86-1.7-2.68-.69-2-2.77-2-4.54,0-3.89,0-7.79,0-11.68,6.15-1.06,13.7,3.27,16.8,9.66,3.63,7.48,3.23,15.3.91,22.88-6.85,22.35-20.91,38.19-43.11,46.32-15.66,5.73-31.78,8-48.28,5.11-21-3.75-38-14-49.31-32.64a2.08,2.08,0,0,1-.26-.42c-1.25-5.43-5-5.85-9.51-4.74A46.22,46.22,0,0,1,220.67,1143.31Z"/><path class="cls-4" d="M231.26,1074.24a78.54,78.54,0,0,1-9.21-.08,18.07,18.07,0,0,1-7.24-2.14c-3.84-2.35-3.74-7,.09-9.4,1.76-1.1,4.27-1,5.95-2.2s2.35-3.49,3.93-4.73c4.24-3.35,12.53-2.78,15.18,1.37a8.32,8.32,0,0,0,6,4.13,7.85,7.85,0,0,1,3.4,2c2.9,2.58,2.71,6.7-.65,8.63a19.22,19.22,0,0,1-7.2,2.32,89.07,89.07,0,0,1-10.21.1Z"/><path class="cls-4" d="M377,1072.74c-2.58,0-5.17.18-7.71-.06a14.2,14.2,0,0,1-5.9-1.52,7.24,7.24,0,0,1-2.89-4.2c-.49-2,1-3.52,2.81-4.53a3,3,0,0,1,.68-.31,11.32,11.32,0,0,0,6.44-4.38c3.53-4.61,12.31-3,15,2.16a2.86,2.86,0,0,0,1.38,1.09,10.22,10.22,0,0,0,1.7.29c3.13.73,5.38,3,5.44,5.39s-2,4.58-5.07,5.41a18.71,18.71,0,0,1-4.15.59c-2.57.1-5.14,0-7.71,0Z"/><path class="cls-4" d="M270.34,1006.86c-1.83,0-3.66.08-5.49,0-2.42-.13-4.41-1.6-4.38-3.3,0-2.25,1.75-3,3.57-3.59a3.43,3.43,0,0,0,1.66-1.1,5.77,5.77,0,0,1,9.64-.1,4.08,4.08,0,0,0,1.92,1.17c1.7.64,3.42,1.35,3.35,3.49s-1.79,3-3.55,3.24a57.89,57.89,0,0,1-6.72.06Z"/><path class="cls-4" d="M353.38,997c-2.1-.1-3.66.08-5.06-.32a3.43,3.43,0,0,1-2-2.12c-.12-.55,1-1.47,1.7-2.11a7.7,7.7,0,0,1,2.11-1.47c1.08-.49,2.49-1.37,3.34-1a18.47,18.47,0,0,1,5.9,3.6c1.19,1.16.09,2.62-1.39,3A30.05,30.05,0,0,1,353.38,997Z"/><text id="telecom_solutions-7" data-name="telecom solutions" class="cls-5" transform="translate(194.34 1219.62)">NAS IMPORT<tspan x="37.97" y="38.03">EXPORT</tspan></text></g><g id="telecom"><path class="cls-4" d="M694.41,1372.3l-17-43.27h0l-1-2.55h0l-14.64-37.19L645.46,1248a13.64,13.64,0,1,0-7.45-.36.5.5,0,0,0,0,.13l-16.51,42-15.17,38.54h0l-.26.68-15.61,39.65a4,4,0,0,0,5.59,5l42.93-23,49.9,26.73a4,4,0,0,0,5.59-5Zm-30-54.44-16.75-13.58,8.65-7Zm-22.74-57.78,11.57,29.4-.2.17-11.71,9.49-11.4-9.24Zm-14.8,37.6,2.86,2.32,5.27,4.28-15.76,12.77Zm-25.08,63.71,10-25.38,18.69,10Zm20.6-28.74-5.85-3.14,24.79-20.1L664.21,1328l-25.29,13.55Zm25,13.37,23.24-12.45L683,1365.12Z"/><path class="cls-4" d="M663.9,1212.78a4,4,0,1,0-6.1,5.13,25.18,25.18,0,0,1,0,32.49,4,4,0,0,0,6.1,5.13,33.34,33.34,0,0,0,7.81-21.06A33.85,33.85,0,0,0,663.9,1212.78Z"/><path class="cls-4" d="M675.12,1200.46a4,4,0,0,0-5.57,5.71,40.12,40.12,0,0,1,0,57.47,4,4,0,0,0,5.57,5.71c3.42-3.34,14.57-15.68,14.53-34.55S678.52,1203.77,675.12,1200.46Z"/><path class="cls-4" d="M688.5,1187a4,4,0,1,0-5.68,5.59c4.1,4.17,17.45,19.55,17.18,42.56a60.53,60.53,0,0,1-17.18,41.16,4,4,0,1,0,5.68,5.59c5.76-5.85,19.18-22.1,19.47-46.65C708.28,1209.14,693.15,1191.71,688.5,1187Z"/><path class="cls-4" d="M624.89,1212.75a4,4,0,0,0-5.62.49,33.8,33.8,0,0,0-7.8,21.69,33.32,33.32,0,0,0,7.8,21.06,4,4,0,1,0,6.1-5.13,25.21,25.21,0,0,1,0-32.49A4,4,0,0,0,624.89,1212.75Z"/><path class="cls-4" d="M601.5,1235.28a41.18,41.18,0,0,1,12.12-28.65,4,4,0,1,0-5.57-5.71c-3.39,3.32-14.48,15.58-14.52,34.35s11.11,31.21,14.52,34.54a4,4,0,1,0,5.57-5.71A41.21,41.21,0,0,1,601.5,1235.28Z"/><path class="cls-4" d="M583.18,1235.61c-.27-23,13.08-38.4,17.17-42.57a4,4,0,0,0-5.68-5.59c-4.64,4.72-19.77,22.15-19.46,48.25.29,24.55,13.71,40.8,19.46,46.65a3.94,3.94,0,0,0,2.84,1.19,4,4,0,0,0,2.84-6.78A60.46,60.46,0,0,1,583.18,1235.61Z"/><text class="cls-5" transform="translate(565.46 1414.29)">TELECOM<tspan x="-16.78" y="38.03">SOLUTIONS</tspan></text></g><path class="cls-4" d="M547.67,593.31h17.59v72.43H547.67l-29.43-45.58v45.58H500.65V593.31h17.59l29.43,45.58Z"/><path class="cls-4" d="M626.57,665.74l-4-12.14H596.63l-4,12.14H573.9L599,593.31h21.39l25,72.43Zm-25.52-25.52h17.08l-8.54-25.71Z"/><path class="cls-4" d="M649.09,606.89V593.52h57v13.37H686.33v58.85H668.74V606.89Z"/><path class="cls-4" d="M716.57,665.74V593.52h17.6v72.22Z"/><path class="cls-4" d="M756.13,656q-10.75-10.49-10.75-26.54t10.75-26.49q10.74-10.44,26.33-10.44t26.23,10.44q10.65,10.44,10.65,26.49T808.64,656a38.07,38.07,0,0,1-52.51,0Zm40.12-11.41q5.19-5.67,5.19-15.13t-5.19-15.12q-5.21-5.65-13.89-5.66t-13.89,5.66q-5.19,5.66-5.19,15.12t5.19,15.13q5.19,5.66,13.89,5.65T796.25,644.55Z"/><path class="cls-4" d="M877.67,593.31h17.59v72.43H877.67l-29.42-45.58v45.58H830.66V593.31h17.59l29.42,45.58Z"/><path class="cls-4" d="M956.57,665.74l-4-12.14H926.63l-4,12.14H903.9L929,593.31h21.4l25,72.43Zm-25.51-25.52h17.07l-8.54-25.71Z"/><path class="cls-4" d="M984,593.52h17.59v58.84h21.92v13.38H984Z"/><path class="cls-4" d="M429.83,789.19V717h17.59v72.22Z"/><path class="cls-4" d="M509.86,716.76h17.59v72.43H509.86l-29.42-45.58v45.58H462.85V716.76h17.59l29.42,45.58Z"/><path class="cls-4" d="M561.5,789.19,535.89,717h18.72l17.9,55,17.9-55h18.72l-25.61,72.22Z"/><path class="cls-4" d="M661.29,716.76v13.38H635.16v15.53h23v13.38h-23v16.76h26.13v13.38H617.57V716.76Z"/><path class="cls-4" d="M700.89,729.83a8.13,8.13,0,0,0-5.4,1.75,6.17,6.17,0,0,0-2.11,5,7.29,7.29,0,0,0,2,5.3,12.86,12.86,0,0,0,5.1,3.08q3.14,1.08,7,2.06a76.78,76.78,0,0,1,7.66,2.37,33.35,33.35,0,0,1,6.95,3.44,15.12,15.12,0,0,1,5.09,5.82,19.29,19.29,0,0,1,2,9q0,9.15-7.45,15.69T702,789.91q-12.19,0-19.65-5.87t-7.46-16.66h18.72q.72,8.64,8.85,8.64a8.42,8.42,0,0,0,6-2,6.63,6.63,0,0,0,2.16-5.09,6.79,6.79,0,0,0-2-5,13.55,13.55,0,0,0-5.09-3.08,72.73,72.73,0,0,0-7-2.11,70.14,70.14,0,0,1-7.67-2.42,37.12,37.12,0,0,1-6.94-3.45,14.65,14.65,0,0,1-5.09-5.76,18.94,18.94,0,0,1-2-8.9A19.74,19.74,0,0,1,682.37,722q7.51-6.07,19.19-6.07t18.87,5.3q7.2,5.29,7.51,16.72H708.81a9.69,9.69,0,0,0-2.52-6A7.31,7.31,0,0,0,700.89,729.83Z"/><path class="cls-4" d="M738,730.34V717h57v13.37H775.26v58.85H757.67V730.34Z"/><path class="cls-4" d="M887.29,717v72.22h-17.6V748.45l-16.76,40.74H839.86l-16.77-40.74v40.74H805.5V717h20.17l20.78,49.79L867.12,717Z"/><path class="cls-4" d="M946.43,716.76v13.38H920.3v15.53h23.05v13.38H920.3v16.76h26.13v13.38H902.71V716.76Z"/><path class="cls-4" d="M1008.57,716.76h17.59v72.43h-17.59l-29.42-45.58v45.58h-17.6V716.76h17.6l29.42,45.58Z"/><path class="cls-4" d="M1036.65,730.34V717h57v13.37h-19.75v58.85H1056.3V730.34Z"/><path class="cls-4" d="M588.92,902.82q-10.75-10.46-10.75-26.5t10.75-26.49a36.27,36.27,0,0,1,26.28-10.44,37.15,37.15,0,0,1,21.4,6.38,33.28,33.28,0,0,1,13.06,17.7h-21q-4.11-7.94-13.16-7.93t-14.25,5.66q-5.19,5.65-5.2,15.12t5.2,15.13q5.19,5.65,13.94,5.66A16,16,0,0,0,625.43,894a15.12,15.12,0,0,0,5.3-8.39H610.36V872.21h39.3v13.37q-1.95,9.88-10.8,18.42a32.47,32.47,0,0,1-10.44,6.68,34.2,34.2,0,0,1-13.22,2.58A36.27,36.27,0,0,1,588.92,902.82Z"/><path class="cls-4" d="M678.56,884.56v28.08H661V840.42h28.5q12.54,0,19.54,6.48a20.55,20.55,0,0,1,7,15.64,22.46,22.46,0,0,1-3.81,12.24q-3.8,6-12.44,8.44l17.69,29.42H696.87l-16.25-28.08Zm0-30.77v17.39h10.91a8.07,8.07,0,0,0,8.64-8.59,8.78,8.78,0,0,0-2.37-6.33,8.3,8.3,0,0,0-6.27-2.47Z"/><path class="cls-4" d="M736.22,902.87q-10.74-10.5-10.75-26.55t10.75-26.49q10.75-10.44,26.34-10.44t26.23,10.44q10.65,10.45,10.65,26.49t-10.7,26.55a38.11,38.11,0,0,1-52.52,0Zm40.12-11.42q5.19-5.66,5.2-15.13t-5.2-15.12q-5.19-5.66-13.88-5.66t-13.89,5.66q-5.21,5.65-5.2,15.12t5.2,15.13q5.19,5.65,13.89,5.66T776.34,891.45Z"/><path class="cls-4" d="M810.44,883.53V840.42H828v43.11q0,6.48,3.19,10t9.36,3.49q6.18,0,9.47-3.49t3.29-10V840.42h17.59v43.11A29.86,29.86,0,0,1,866.46,900a26.9,26.9,0,0,1-11.32,10.13,34.7,34.7,0,0,1-14.87,3.19q-12.54,0-21.19-7.82T810.44,883.53Z"/><path class="cls-4" d="M941,862.54q0,7.31-5.24,14.09a19.63,19.63,0,0,1-8.28,5.71,34.72,34.72,0,0,1-13,2.22h-10.9v28.08H886V840.42h28.49q12.55,0,19.55,6.48A20.57,20.57,0,0,1,941,862.54Zm-37.44,8.64h10.9a8.06,8.06,0,0,0,8.64-8.59,8.81,8.81,0,0,0-2.36-6.33,8.32,8.32,0,0,0-6.28-2.47h-10.9Z"/></g></g></svg>